<!DOCTYPE svg PUBLIC "-//W3C//DTD SVG 1.1//EN" "http://www.w3.org/Graphics/SVG/1.1/DTD/svg11.dtd">
<!-- Uploaded to: SVG Repo, www.svgrepo.com, Transformed by: SVG Repo Mixer Tools -->
<svg version="1.1" id="_x32_" xmlns="http://www.w3.org/2000/svg" xmlns:xlink="http://www.w3.org/1999/xlink" width="800px" height="800px" viewBox="0 0 512 512" xml:space="preserve" fill="#000000">
<g id="SVGRepo_bgCarrier" stroke-width="0"/>
<g id="SVGRepo_tracerCarrier" stroke-linecap="round" stroke-linejoin="round"/>
<g id="SVGRepo_iconCarrier"> <style type="text/css">  .st0{fill:#fff;}  </style> <g> <path class="st0" d="M464.625,129.004c-20.281-20.109-47.094-31.391-75.563-31.766l-9.625-0.125l-2.141-9.359 c-5.703-24.813-19.891-47.25-39.953-63.234C316.703,8.161,291.859-0.324,265.469,0.004c-26.688,0.391-51.5,9.703-71.813,26.953 c-19.75,16.828-33.219,40.047-37.938,65.359l-2.188,11.703l-11.813-1.891c-6.781-1.063-12.922-1.547-18.813-1.469 c-29.063,0.406-56.281,12.109-76.656,32.984c-20.297,20.891-31.25,48.406-30.891,77.5c0.406,29.078,12.109,56.297,32.984,76.688 c20.906,20.281,48.422,31.266,77.5,30.875l263.25-3.531c29.063-0.406,56.281-12.109,76.656-32.984 c20.281-20.906,31.25-48.438,30.891-77.516C496.234,176.129,484.875,149.286,464.625,129.004z"/> <path class="st0" d="M149.594,353.083c0,0-21.094,19.703-26.063,25.781c-1.891,2.313-3.313,5.078-4.094,8.156 c-2.813,11.203,3.969,22.594,15.188,25.422s22.594-3.984,25.422-15.188c0.781-3.094,0.828-6.172,0.266-9.109 C158.797,380.442,149.594,353.083,149.594,353.083z"/> <path class="st0" d="M124.656,452.005c0,0-21.078,19.719-26.047,25.813c-1.891,2.313-3.328,5.047-4.094,8.125 c-2.828,11.219,3.969,22.594,15.172,25.422c11.219,2.828,22.594-3.969,25.422-15.188c0.797-3.078,0.828-6.188,0.266-9.094 C133.875,479.349,124.656,452.005,124.656,452.005z"/> <path class="st0" d="M274.813,351.395c0,0-21.063,19.719-26.047,25.797c-1.891,2.313-3.313,5.063-4.078,8.141 c-2.844,11.219,3.969,22.594,15.156,25.422c11.234,2.813,22.609-3.969,25.438-15.188c0.781-3.094,0.828-6.172,0.25-9.109 C284.031,378.754,274.813,351.395,274.813,351.395z"/> <path class="st0" d="M249.875,450.317c0,0-21.063,19.719-26.031,25.797c-1.906,2.328-3.313,5.063-4.094,8.141 c-2.828,11.219,3.969,22.594,15.188,25.422c11.203,2.828,22.594-3.969,25.406-15.172c0.781-3.094,0.828-6.188,0.266-9.109 C259.094,477.677,249.875,450.317,249.875,450.317z"/> <path class="st0" d="M400.063,349.723c0,0-21.094,19.703-26.063,25.781c-1.891,2.313-3.328,5.063-4.094,8.141 c-2.844,11.219,3.969,22.609,15.188,25.438c11.203,2.813,22.594-3.985,25.422-15.204c0.766-3.078,0.813-6.172,0.25-9.109 C409.281,377.067,400.063,349.723,400.063,349.723z"/> <path class="st0" d="M375.125,448.646c0,0-21.063,19.703-26.063,25.797c-1.891,2.313-3.313,5.063-4.094,8.141 c-2.813,11.203,3.969,22.594,15.188,25.406c11.219,2.844,22.594-3.953,25.422-15.172c0.781-3.078,0.828-6.188,0.266-9.094 C384.328,475.989,375.125,448.646,375.125,448.646z"/> </g> </g>
</svg>