<?xml version="1.0" standalone="no"?>
<!DOCTYPE svg PUBLIC "-//W3C//DTD SVG 20010904//EN"
 "http://www.w3.org/TR/2001/REC-SVG-20010904/DTD/svg10.dtd">
<svg version="1.0" xmlns="http://www.w3.org/2000/svg"
 width="512.000000pt" height="768.000000pt" viewBox="0 0 512.000000 768.000000"
 preserveAspectRatio="xMidYMid meet">

<g transform="translate(0.000000,768.000000) scale(0.100000,-0.100000)"
fill="#000000" stroke="none">
<path d="M0 5995 l0 -1685 113 -1 c61 -1 126 -2 142 -3 17 -1 45 -3 63 -4 34
-2 36 -22 2 -22 -36 0 -30 -19 9 -30 60 -16 57 -27 -7 -26 -31 1 -69 -4 -83
-11 -21 -10 -31 -9 -55 3 -16 9 -52 22 -81 29 -28 7 -61 18 -72 24 -29 16 -31
14 -31 -23 0 -26 5 -35 22 -40 18 -4 20 -8 10 -18 -10 -10 -15 -10 -22 2 -6
10 -10 -66 -10 -212 l0 -228 43 -1 c36 -1 38 -2 17 -9 -22 -7 -21 -8 15 -11
56 -3 79 0 83 11 2 6 13 10 23 10 11 0 17 -4 14 -10 -4 -6 7 -10 25 -10 46 0
30 13 -44 35 -38 12 -66 26 -66 33 0 9 7 11 20 7 14 -5 20 -2 20 9 0 9 -7 16
-15 16 -7 0 -18 6 -22 14 -4 8 -17 15 -27 17 -11 2 -21 10 -24 18 -4 12 9 13
74 8 44 -3 99 -13 124 -22 25 -9 63 -19 85 -22 52 -8 216 -10 207 -2 -20 16
-102 37 -137 34 -22 -2 -59 -1 -82 2 -54 7 -58 30 -5 26 20 -1 82 -3 136 -3
62 0 118 -7 150 -17 84 -27 86 -35 14 -56 -59 -17 -82 -22 -135 -25 -34 -3
-28 -19 10 -26 23 -5 28 -9 18 -15 -16 -10 -11 -12 79 -31 30 -6 66 -15 80
-20 24 -8 150 -21 214 -22 17 0 24 -3 16 -8 -16 -10 3 -22 23 -14 8 3 18 1 22
-5 8 -13 55 -15 55 -2 0 5 -6 12 -12 14 -9 4 -7 6 3 6 9 1 52 -11 95 -25 70
-23 97 -27 234 -29 116 -1 164 -6 190 -18 19 -8 55 -20 80 -25 25 -6 69 -17
98 -26 30 -8 60 -12 67 -10 7 3 16 1 20 -5 3 -6 17 -11 31 -11 14 0 23 -4 20
-9 -7 -11 47 -37 98 -47 21 -4 62 -15 90 -25 65 -24 141 -35 150 -21 3 6 2 13
-4 17 -5 3 -10 1 -10 -5 0 -7 -16 2 -35 19 -20 17 -41 31 -48 31 -7 0 -18 5
-25 12 -6 6 -17 13 -24 15 -7 1 -21 4 -30 6 -10 2 -21 6 -24 10 -13 12 -102 8
-108 -5 -5 -10 -7 -10 -12 0 -3 7 -20 20 -37 29 -18 9 -26 18 -19 20 20 7 14
23 -10 23 -21 0 -21 0 -2 15 10 8 15 15 9 15 -5 1 4 7 20 14 17 7 35 10 40 6
11 -8 33 -11 77 -11 19 0 25 -4 22 -13 -4 -10 7 -15 36 -18 46 -4 75 7 47 18
-9 3 -23 4 -30 1 -8 -3 -20 -1 -28 4 -17 10 -15 11 81 13 36 1 71 6 79 11 10
5 16 4 19 -3 5 -15 42 -16 42 -2 0 6 14 10 32 10 l31 0 -26 -23 c-15 -12 -27
-26 -27 -29 0 -11 59 -20 72 -12 7 5 22 7 34 6 23 -3 29 23 11 46 -7 9 -4 12
11 12 34 0 36 20 3 26 -17 4 -31 10 -31 14 0 12 49 30 55 20 11 -18 23 -10 18
10 -3 12 -11 19 -17 17 -6 -3 -18 1 -26 7 -27 22 -113 36 -202 33 -57 -1 -91
2 -99 10 -20 20 14 43 63 43 24 0 51 7 61 14 10 8 27 12 37 9 11 -3 20 -1 20
4 0 14 -22 33 -39 33 -9 0 -25 14 -36 30 -16 24 -27 30 -60 31 -22 1 -32 3
-22 6 9 2 17 8 17 13 0 10 -49 29 -72 28 -28 -2 -21 -18 7 -18 17 0 23 -4 19
-14 -8 -21 -37 -29 -49 -13 -5 8 -21 16 -35 20 -45 10 -125 40 -131 49 -4 7
-42 16 -134 34 -59 11 -85 8 -85 -10 0 -8 -7 -16 -15 -19 -11 -5 -92 11 -140
27 -5 2 10 8 35 13 29 6 53 6 68 -1 16 -7 26 -6 34 2 9 9 7 12 -11 12 -12 0
-19 4 -16 10 3 6 -3 10 -14 10 -11 0 -23 4 -26 10 -6 10 -124 70 -137 70 -22
0 -4 -21 25 -29 17 -5 26 -10 20 -10 -19 -1 -16 -21 3 -21 8 0 13 -4 9 -9 -6
-10 -51 -8 -62 2 -3 4 -16 7 -27 8 -12 0 -39 9 -61 19 -37 17 -38 19 -13 19
14 1 29 7 31 14 4 9 6 9 6 0 1 -15 31 -18 31 -4 0 5 -13 12 -30 16 -16 4 -32
11 -35 16 -4 5 -16 9 -28 10 -30 1 40 21 73 21 14 -1 36 8 50 18 21 16 22 20
7 20 -10 0 -37 10 -60 23 l-42 22 49 3 c27 2 52 0 55 -5 12 -16 51 -33 75 -33
14 0 28 -4 31 -10 3 -5 18 -10 33 -11 15 0 43 -6 62 -14 l35 -12 -40 -8 c-37
-8 -38 -8 -15 -18 14 -5 32 -10 40 -11 8 -1 35 -11 60 -23 57 -25 120 -38 120
-23 0 6 -14 13 -30 17 -17 3 -30 10 -30 14 0 5 11 7 24 3 13 -3 27 -1 30 5 10
16 35 14 52 -4 17 -17 79 -21 69 -5 -3 6 -13 10 -21 10 -8 0 -14 5 -14 11 0 6
-7 8 -16 5 -8 -3 -12 -2 -9 4 3 6 25 11 48 11 32 2 35 3 13 6 -17 3 -30 12
-33 24 -3 10 -12 19 -19 19 -8 0 -14 7 -14 16 0 8 5 12 10 9 6 -3 10 -2 10 2
0 5 -12 14 -27 21 -21 8 -22 10 -5 6 29 -7 63 21 55 44 -9 22 -34 45 -68 62
-17 8 -43 23 -60 35 -45 30 -75 45 -94 45 -25 0 -33 11 -19 27 9 11 9 17 -3
24 -13 9 -31 8 -114 -7 -20 -4 -26 -2 -16 4 10 7 10 11 1 17 -7 4 -16 2 -20
-6 -7 -10 -12 -10 -26 2 -24 20 -64 20 -56 -1 3 -8 12 -19 19 -23 24 -14 4
-26 -30 -17 -17 5 -57 12 -87 15 l-55 5 25 -20 c14 -11 42 -23 63 -26 31 -6
38 -10 34 -25 -3 -11 -1 -19 4 -19 5 0 9 -4 9 -10 0 -5 -9 -10 -19 -10 -25 0
-38 -20 -20 -31 12 -7 11 -9 -1 -10 -54 -5 -73 -3 -77 8 -3 7 -16 13 -28 13
-52 0 -73 22 -32 34 l22 7 -23 11 c-18 9 -25 9 -32 -1 -10 -17 -50 -5 -50 14
0 24 -52 44 -101 40 -34 -3 -37 -3 -14 3 l30 8 -25 8 c-44 14 -51 15 -56 2 -4
-9 -23 -4 -70 18 -56 27 -64 34 -61 54 3 14 -1 26 -9 29 -7 2 -11 10 -8 18 3
8 -11 17 -40 26 -25 7 -46 17 -46 21 0 4 -14 8 -32 10 -30 3 -32 6 -32 40 0
21 -5 37 -11 36 -19 -2 -86 33 -80 43 4 6 11 6 18 1 21 -16 66 -20 78 -6 8 10
3 14 -25 19 -24 5 -33 11 -29 21 3 8 0 14 -7 14 -15 0 -38 -24 -48 -50 l-8
-21 -18 20 c-19 21 -19 21 0 21 12 0 15 3 7 8 -16 10 -28 62 -14 62 6 0 11 -9
11 -20 0 -11 5 -20 11 -20 6 0 8 8 5 18 -3 9 1 26 9 36 15 19 15 19 36 -3 12
-12 27 -20 35 -17 8 3 14 -1 14 -9 0 -8 -4 -15 -10 -15 -5 0 -10 -7 -10 -15 0
-20 7 -19 33 5 15 15 29 19 46 15 18 -5 22 -3 18 9 -7 18 13 22 30 5 8 -8 17
-8 32 0 13 8 21 8 21 2 0 -7 9 -7 25 -1 14 5 41 11 61 13 36 4 73 27 44 27
-13 0 -13 2 0 10 8 5 28 10 43 10 18 0 26 4 21 11 -3 6 -15 9 -25 6 -25 -7
-24 -1 6 31 14 15 25 32 25 39 0 6 3 18 6 27 4 11 0 16 -14 16 -24 0 -46 25
-36 41 4 7 -1 18 -12 26 -15 11 -16 17 -6 33 7 12 8 21 2 25 -6 3 -10 0 -10
-8 0 -20 -26 -41 -35 -27 -3 5 -16 11 -28 11 -17 1 -18 2 -4 6 9 2 17 11 17
20 0 13 2 13 17 2 15 -12 16 -12 10 4 -4 10 -7 22 -7 26 0 4 -15 6 -32 4 -18
-2 -27 0 -21 3 21 9 15 26 -7 19 -11 -4 -20 -2 -20 4 0 6 8 11 19 11 10 0 23
6 28 13 13 16 12 47 -1 47 -6 1 -24 12 -41 25 l-30 25 25 0 c23 0 21 2 -15 25
-34 20 -35 31 -3 26 22 -3 -8 26 -41 40 -31 13 -42 14 -62 4 -26 -13 -99 -9
-99 6 0 5 6 9 13 9 7 0 12 13 12 30 1 18 -4 30 -12 30 -7 0 -13 11 -13 25 0
16 6 25 15 25 18 0 20 27 3 33 -8 2 -9 8 -4 13 5 5 11 4 13 -3 8 -22 32 -14
68 21 18 19 39 37 47 40 7 3 3 4 -9 2 -22 -4 -42 21 -26 33 4 3 10 15 11 26 6
32 12 31 12 -3 0 -24 4 -30 15 -26 9 4 15 0 15 -7 1 -9 4 -8 11 4 8 14 14 16
25 6 10 -8 14 -8 14 0 0 6 7 11 15 11 18 0 20 -16 3 -23 -7 -3 -4 -6 8 -6 11
-1 24 2 28 7 4 4 33 7 64 8 32 1 90 4 130 8 59 6 73 4 78 -8 3 -8 12 -12 20
-9 7 3 17 -2 20 -11 3 -9 17 -16 29 -16 33 0 55 -10 55 -25 0 -7 7 -16 16 -19
10 -4 13 -2 8 6 -5 8 6 9 39 5 27 -4 49 -2 52 4 4 5 16 7 28 3 19 -6 20 -5 9
9 -18 22 0 29 39 15 29 -10 34 -9 50 10 9 12 22 22 27 22 6 0 12 10 15 23 3
20 4 20 11 4 6 -12 2 -23 -14 -37 -19 -16 -20 -20 -6 -20 9 0 25 -5 36 -12 22
-14 42 -2 20 13 -11 7 -4 8 22 3 20 -3 43 -2 50 2 7 5 24 10 38 11 14 1 19 0
13 -3 -21 -9 -15 -26 6 -19 11 3 22 1 25 -4 7 -11 35 -3 54 15 17 17 15 29 -3
14 -18 -15 -38 -3 -30 18 5 14 4 14 -12 0 -17 -16 -20 -15 -41 7 l-24 25 32
29 c28 25 36 28 64 20 17 -5 33 -14 34 -19 2 -6 10 -10 18 -10 15 0 16 -4 18
-60 1 -29 -2 -36 -22 -40 -23 -5 -23 -5 5 -22 27 -16 30 -15 53 3 21 16 23 20
10 29 -12 7 -7 10 17 10 27 0 34 -5 39 -26 4 -14 9 -22 13 -17 8 11 42 13 35
2 -3 -5 4 -9 15 -9 12 0 24 0 29 0 4 0 7 6 7 13 0 6 12 12 27 12 20 -1 24 2
16 12 -7 9 -4 22 12 48 17 28 28 35 53 35 24 0 28 3 17 10 -12 7 -12 12 4 29
17 18 17 19 -1 24 -10 3 -1 5 20 6 20 0 37 -3 37 -8 0 -5 9 -13 20 -16 11 -4
18 -11 15 -16 -12 -18 8 -8 49 26 48 39 67 43 90 19 14 -13 16 -13 16 -1 0 14
58 42 68 33 2 -3 -7 -8 -22 -12 -14 -3 -26 -10 -26 -14 0 -17 59 15 64 34 6
24 -19 64 -28 44 -3 -7 -4 1 -3 17 2 28 5 30 44 33 39 3 41 5 34 26 -8 20 -7
22 19 18 19 -3 27 -9 23 -18 -3 -9 2 -14 16 -14 12 0 21 5 21 11 0 5 5 7 10 4
15 -9 12 -94 -4 -110 -7 -8 -16 -11 -20 -8 -8 9 -37 -18 -30 -28 3 -5 2 -9 -3
-8 -13 3 -66 -21 -60 -27 2 -3 28 -7 57 -10 44 -3 51 -1 46 12 -10 26 23 64
55 64 22 0 30 6 35 25 4 16 13 25 26 25 10 0 17 4 13 10 -7 11 30 51 39 42 3
-3 16 3 29 14 35 30 65 44 94 44 21 0 24 3 14 9 -8 5 -29 7 -48 4 -26 -4 -33
-2 -33 11 0 9 8 16 21 16 11 0 17 5 14 10 -9 14 36 59 52 53 7 -3 13 0 13 6 0
6 -13 11 -29 11 -32 0 -49 14 -31 25 7 4 8 11 1 18 -6 8 -3 20 10 36 19 23 21
23 37 8 10 -11 12 -17 4 -17 -7 0 -12 -4 -12 -10 0 -11 30 -1 47 16 10 10 10
14 0 18 -6 4 3 4 21 1 17 -2 32 0 32 5 0 6 9 5 20 -2 27 -17 52 -1 56 35 2 25
-6 32 -30 28 -5 -1 -12 3 -16 10 -4 6 -13 8 -20 4 -9 -6 -9 -9 1 -16 9 -5 10
-12 4 -18 -7 -7 -21 -5 -43 6 l-33 16 31 15 c16 8 30 20 30 27 0 15 28 28 42
19 5 -3 7 -12 4 -20 -3 -7 4 -18 14 -24 20 -11 29 3 10 15 -5 3 0 17 12 30 15
17 32 25 55 25 19 0 36 6 39 14 9 22 41 7 58 -27 10 -23 12 -35 4 -44 -7 -9
-7 -17 1 -27 8 -10 9 -16 1 -21 -6 -3 -7 -11 -4 -17 4 -6 -1 -8 -16 -3 -17 5
-28 0 -51 -26 -16 -18 -40 -34 -55 -35 -36 -4 -65 -31 -45 -43 9 -6 10 -11 2
-15 -6 -4 -15 -4 -21 -1 -5 3 -10 -1 -10 -9 0 -10 6 -13 15 -10 9 4 15 0 15
-9 0 -12 -8 -14 -35 -10 -23 4 -35 2 -35 -6 0 -6 -9 -11 -19 -11 -23 0 -36
-16 -19 -23 8 -3 2 -10 -14 -17 -32 -15 -46 -70 -17 -70 28 0 30 -28 4 -54
-13 -13 -26 -21 -29 -18 -3 3 -6 -2 -6 -11 0 -11 13 -18 48 -23 26 -3 52 -10
58 -15 13 -11 54 0 54 15 0 6 22 12 53 14 52 3 78 14 59 26 -13 8 18 76 35 76
16 0 17 -42 2 -57 -6 -6 -13 -34 -14 -62 -2 -46 -7 -56 -58 -110 l-55 -60 18
-38 c15 -31 27 -41 64 -52 37 -11 49 -11 61 -1 10 8 53 13 118 14 56 1 108 5
116 10 8 5 36 11 63 13 39 3 50 0 55 -14 11 -29 35 -49 82 -67 39 -15 46 -15
67 -1 30 19 36 19 32 -2 -3 -16 4 -18 52 -16 35 2 59 8 66 18 6 8 19 15 29 15
10 0 15 3 12 7 -4 3 11 17 33 30 22 13 40 31 40 39 0 8 5 14 10 14 6 0 10 6
10 14 0 7 22 33 50 57 27 24 50 50 50 57 0 10 3 10 14 0 13 -11 13 -15 -1 -25
-14 -11 -14 -13 3 -20 24 -9 84 -9 107 1 13 6 16 5 11 -8 -4 -9 -1 -16 6 -16
8 0 10 -8 7 -21 -5 -18 -2 -20 17 -15 16 4 29 -1 41 -14 10 -11 26 -20 37 -20
11 0 18 -7 18 -19 0 -11 4 -22 9 -26 15 -9 24 14 11 30 -6 7 -7 16 -2 19 13 7
22 -4 22 -26 0 -10 7 -18 15 -18 8 0 15 5 15 11 0 6 8 8 19 4 12 -3 21 0 25
10 3 10 -1 15 -12 16 -57 2 -92 26 -54 36 14 3 21 11 18 19 -3 7 -1 16 3 19 5
2 11 -4 14 -16 3 -12 0 -22 -9 -26 -35 -13 9 -27 84 -26 30 1 27 -8 -11 -32
-37 -24 -43 -50 -10 -49 13 0 21 -1 19 -3 -2 -2 7 -16 20 -30 16 -18 33 -25
59 -25 44 0 47 -18 3 -19 -18 0 -27 -3 -21 -6 25 -9 12 -23 -27 -29 -22 -4
-40 -10 -40 -15 0 -5 -12 -9 -27 -9 -28 -1 -110 -39 -85 -40 19 0 14 -28 -5
-33 -17 -4 -17 -5 0 -6 10 0 25 -7 32 -15 12 -12 11 -15 -5 -19 -11 -3 -20
-10 -20 -16 0 -15 26 -16 142 -8 23 1 49 13 72 32 41 34 45 45 17 45 -11 0
-23 5 -26 10 -4 6 8 10 27 10 33 0 58 14 58 33 0 4 -5 5 -11 1 -7 -4 -10 -1
-7 7 3 8 17 13 32 12 14 -1 24 2 21 7 -7 11 18 19 68 22 37 2 53 17 20 19 -11
0 -13 3 -5 6 6 2 12 11 12 18 0 7 8 16 18 18 16 4 16 5 0 6 -10 0 -18 7 -18
15 0 16 -34 31 -50 21 -6 -3 -13 1 -16 9 -4 11 -14 14 -30 10 -15 -4 -24 -2
-24 5 0 16 -19 14 -36 -4 -21 -20 -34 -19 -34 3 0 10 -5 23 -12 30 -17 17 -3
25 21 12 23 -12 41 -6 41 14 0 7 9 21 20 31 11 10 20 15 20 11 0 -4 7 -1 15 8
8 8 15 23 15 33 0 33 21 45 43 25 18 -16 19 -16 32 1 6 9 15 17 19 17 10 0 7
-28 -5 -32 -7 -2 -7 -12 1 -32 6 -17 15 -26 24 -23 16 6 36 -11 36 -31 0 -9
-7 -11 -19 -7 -18 6 -51 -17 -51 -35 0 -17 18 -20 30 -5 7 8 16 13 20 10 4 -3
10 2 14 10 7 18 33 20 39 3 3 -10 8 -10 16 -2 10 9 6 13 -13 18 -34 8 -34 36
-1 36 14 0 25 5 25 10 0 6 7 10 15 10 8 0 15 -7 15 -16 0 -8 5 -12 10 -9 15 9
50 -4 50 -20 0 -7 -7 -16 -16 -19 -14 -5 -14 -8 0 -21 8 -8 19 -15 25 -15 8 0
11 290 11 980 l0 980 -2560 0 -2560 0 0 -1685z m4760 1305 c0 -5 -10 -10 -22
-10 -19 0 -20 2 -8 10 19 13 30 13 30 0z m-89 -120 c16 0 29 -4 29 -10 0 -13
-23 -13 -54 1 -14 7 -22 17 -19 22 5 8 8 7 11 -1 2 -7 17 -12 33 -12z m59 16
c0 -11 -19 -15 -25 -6 -3 5 1 10 9 10 9 0 16 -2 16 -4z m9 -68 c-5 -10 -7 -18
-3 -18 4 0 4 -3 1 -7 -4 -3 -14 2 -22 13 -13 17 -13 16 -5 -16 6 -19 10 -36
10 -36 0 -1 -9 0 -20 3 -14 4 -20 0 -20 -11 0 -9 -8 -16 -20 -16 -11 0 -20 -7
-20 -15 0 -8 -8 -15 -17 -14 -11 0 -13 3 -6 6 10 3 10 8 -1 19 -16 16 -51 19
-41 4 3 -5 1 -10 -4 -10 -6 0 -11 4 -11 9 0 5 -3 16 -6 24 -4 12 0 14 15 10
16 -4 21 -1 21 13 0 28 66 62 117 61 38 0 41 -2 32 -19z m-199 -58 c0 -5 -9
-10 -21 -10 -11 0 -17 5 -14 10 3 6 13 10 21 10 8 0 14 -4 14 -10z m-120 -4
c0 -3 -4 -8 -10 -11 -5 -3 -10 -1 -10 4 0 6 5 11 10 11 6 0 10 -2 10 -4z m180
-56 c0 -5 -10 -10 -22 -9 -22 0 -22 1 -3 9 11 5 21 9 23 9 1 1 2 -3 2 -9z
m-402 -17 c-2 -9 -8 -18 -15 -20 -7 -3 -9 3 -6 16 6 25 26 28 21 4z m352 3 c0
-11 -19 -15 -25 -6 -3 5 1 10 9 10 9 0 16 -2 16 -4z m-400 -31 c14 -16 10 -18
-14 -9 -9 3 -16 10 -16 15 0 14 16 11 30 -6z m357 -8 c-5 -15 -29 -16 -34 -2
-2 6 6 11 18 12 12 1 19 -3 16 -10z m-257 -28 c0 -5 -4 -9 -10 -9 -5 0 -10 7
-10 16 0 8 5 12 10 9 6 -3 10 -10 10 -16z m-73 -135 c-3 -3 -12 -4 -19 -1 -8
3 -5 6 6 6 11 1 17 -2 13 -5z m-328 -303 c1 21 31 33 45 19 8 -8 7 -14 -4 -21
-11 -7 -8 -9 14 -7 23 2 29 -1 31 -17 1 -11 6 -28 10 -37 5 -14 2 -18 -11 -18
-14 0 -16 -3 -6 -9 16 -10 6 -19 -55 -50 -24 -12 -43 -26 -43 -32 0 -6 -4 -8
-9 -5 -4 3 -26 -9 -47 -28 -48 -40 -59 -44 -159 -61 -44 -7 -84 -14 -90 -15
-5 -1 -27 -2 -48 -1 -30 1 -40 6 -44 21 -3 11 -9 20 -14 20 -13 0 -11 -28 3
-32 6 -2 8 -10 4 -16 -5 -9 -12 -9 -28 -1 -11 6 -31 9 -44 6 -30 -5 -30 0 0
38 19 23 22 35 15 54 -5 13 -8 24 -7 25 2 1 19 14 39 28 20 15 39 24 43 21 3
-3 8 2 12 11 3 9 13 16 20 16 8 0 17 7 20 15 4 8 10 12 15 9 5 -3 9 0 9 6 0 8
7 9 18 5 28 -13 72 -14 102 -3 22 7 37 5 69 -10 23 -11 41 -17 41 -13 0 4 12
14 26 21 19 11 24 20 21 37 -3 16 2 28 17 39 19 13 21 13 28 -8 4 -14 6 -17 7
-7z m-134 -1 c3 -5 1 -10 -4 -10 -6 0 -11 5 -11 10 0 6 2 10 4 10 3 0 8 -4 11
-10z m-1048 -285 c11 -12 28 -14 66 -10 47 5 49 4 22 -6 -16 -7 -33 -16 -36
-22 -4 -5 -15 -7 -24 -3 -26 9 -64 -4 -70 -25 -4 -10 -13 -19 -21 -19 -8 0
-14 -5 -14 -12 0 -8 -3 -9 -10 -2 -21 21 26 114 58 114 7 0 20 -7 29 -15z
m1033 9 c0 -3 -7 -12 -15 -20 -16 -17 -18 -14 -9 10 6 15 24 23 24 10z m-1256
-170 c24 -9 19 -21 -6 -18 -31 3 -30 3 -23 14 7 12 8 12 29 4z m-697 -84 c25
0 43 -5 43 -11 0 -6 -9 -9 -20 -6 -11 3 -20 1 -20 -4 0 -5 6 -9 13 -9 6 0 -3
-10 -20 -21 -18 -12 -31 -24 -28 -29 2 -4 -11 -24 -30 -44 -30 -32 -35 -35
-35 -17 0 26 -35 29 -48 5 -6 -12 -11 -13 -16 -5 -4 6 0 18 9 27 20 20 16 61
-5 55 -8 -2 -22 -4 -30 -5 -9 -1 -21 -5 -28 -10 -7 -4 -12 -1 -12 8 0 9 4 16
9 16 5 0 12 11 15 24 9 35 45 44 67 18 14 -19 20 -20 43 -9 26 12 37 33 12 24
-23 -9 -27 5 -9 25 16 18 17 18 32 -7 13 -20 23 -25 58 -25z m2637 29 c-3 -6
0 -15 7 -20 11 -7 9 -9 -7 -9 -12 0 -26 -11 -35 -27 -19 -39 -31 -44 -47 -25
-12 15 -13 15 -9 -5 3 -15 0 -23 -8 -23 -8 0 -11 7 -8 19 3 13 -2 21 -16 26
-28 8 -26 19 4 35 14 7 25 19 25 27 0 9 15 13 51 13 34 0 48 -4 43 -11z
m-3149 -47 c-7 -8 -35 7 -35 18 0 6 7 6 20 -2 10 -7 17 -14 15 -16z m284 19
c17 -11 5 -32 -14 -25 -18 7 -28 34 -12 34 7 0 18 -4 26 -9z m-199 -11 c0 -5
-4 -10 -10 -10 -5 0 -10 5 -10 10 0 6 5 10 10 10 6 0 10 -4 10 -10z m3205 -1
c11 -17 -1 -21 -15 -4 -8 9 -8 15 -2 15 6 0 14 -5 17 -11z m87 -14 c3 -14 1
-25 -3 -25 -5 0 -9 7 -9 15 0 22 -13 18 -35 -12 -28 -37 -45 -53 -56 -53 -24
0 -5 25 56 75 37 31 42 31 47 0z m-3398 -24 c-2 -2 1 -10 7 -18 14 -16 -11
-19 -28 -2 -6 6 -19 12 -29 13 -10 2 -20 8 -22 14 -2 7 3 10 12 6 9 -3 16 -2
16 4 0 6 9 6 24 -1 14 -7 23 -14 20 -16z m3186 18 c0 13 36 15 45 2 7 -13 -30
-24 -55 -16 -11 3 -20 11 -20 17 0 6 6 6 15 -2 10 -9 15 -9 15 -1z m-152 -16
c2 -7 -3 -13 -12 -13 -21 0 -21 -16 0 -24 9 -4 15 -9 12 -11 -9 -10 -53 20
-53 35 0 29 43 40 53 13z m252 -8 c-7 -9 -15 -13 -17 -11 -7 7 7 26 19 26 6 0
6 -6 -2 -15z m92 -37 c-9 -9 -12 -7 -12 12 0 19 3 21 12 12 9 -9 9 -15 0 -24z
m-3828 -10 c-1 -13 -3 -30 -3 -38 -1 -11 -7 -8 -20 9 -17 22 -17 25 -2 41 20
21 28 17 25 -12z m1378 20 c7 -17 -1 -38 -14 -38 -7 0 -7 4 1 13 8 10 7 17 -1
25 -8 8 -9 12 -1 12 6 0 13 -6 15 -12z m-592 -17 c0 -16 -28 -20 -34 -5 -4 9
1 14 14 14 11 0 20 -4 20 -9z m3240 -12 c0 -5 -7 -9 -15 -9 -9 0 -12 6 -9 15
6 15 24 11 24 -6z m-3290 -1 c0 -4 -9 -8 -20 -8 -11 0 -20 4 -20 8 0 4 9 8 20
8 11 0 20 -4 20 -8z m3034 -12 c-3 -9 -10 -16 -15 -16 -6 0 -5 9 1 21 13 24
24 20 14 -5z m399 -2 c-4 -12 -8 -13 -14 -3 -9 15 -2 32 11 24 5 -3 6 -13 3
-21z m28 -17 c-8 -8 -11 -7 -11 4 0 20 13 34 18 19 3 -7 -1 -17 -7 -23z
m-3574 17 c-3 -3 -12 -4 -19 -1 -8 3 -5 6 6 6 11 1 17 -2 13 -5z m3343 -4 c0
-5 -4 -10 -9 -10 -6 0 -13 5 -16 10 -3 6 1 10 9 10 9 0 16 -4 16 -10z m-3283
-32 c-3 -8 -6 -5 -6 6 -1 11 2 17 5 13 3 -3 4 -12 1 -19z m3233 3 c0 -12 -20
-25 -27 -18 -7 7 6 27 18 27 5 0 9 -4 9 -9z m-120 -11 c0 -5 -4 -10 -10 -10
-5 0 -10 5 -10 10 0 6 5 10 10 10 6 0 10 -4 10 -10z m-2483 -25 c0 -8 -4 -12
-9 -9 -5 3 -6 10 -3 15 9 13 12 11 12 -6z m-1507 -9 c0 -11 -19 -15 -25 -6 -3
5 1 10 9 10 9 0 16 -2 16 -4z m125 -16 c3 -5 -1 -10 -9 -10 -8 0 -18 5 -21 10
-3 6 1 10 9 10 8 0 18 -4 21 -10z m-365 -40 c0 -13 -12 -19 -26 -13 -21 8 -17
22 6 20 11 -1 20 -4 20 -7z m4470 -20 c0 -6 11 -8 25 -4 15 4 25 2 25 -5 0 -6
-16 -11 -35 -11 -24 0 -35 5 -35 15 0 8 5 15 10 15 6 0 10 -5 10 -10z m-3930
-430 c0 -5 -5 -10 -11 -10 -5 0 -7 5 -4 10 3 6 8 10 11 10 2 0 4 -4 4 -10z
m-328 -274 c13 -18 9 -26 -12 -26 -11 0 -20 5 -20 10 0 6 -7 10 -15 10 -8 0
-15 7 -15 15 0 12 7 14 28 9 15 -4 30 -12 34 -18z m1013 -446 c8 -14 -42 -17
-65 -5 -21 11 -20 12 19 12 23 0 44 -3 46 -7z m-91 -25 c25 -19 9 -19 -24 0
-14 8 -19 14 -10 14 8 0 24 -6 34 -14z m-1372 -322 c-6 -2 -10 -9 -6 -14 3 -5
-2 -9 -10 -9 -17 0 -21 12 -9 23 3 4 13 7 22 6 11 0 12 -2 3 -6z m1123 -47
l30 -13 -37 -1 c-22 0 -39 5 -42 14 -7 17 10 17 49 0z m272 -12 c-3 -3 -12 -4
-19 -1 -8 3 -5 6 6 6 11 1 17 -2 13 -5z m-1290 -10 c-3 -3 -12 -4 -19 -1 -8 3
-5 6 6 6 11 1 17 -2 13 -5z m1096 -9 c-2 -5 -7 -11 -13 -11 -23 -3 -24 -5 -10
-14 8 -5 10 -10 4 -10 -6 0 -19 9 -28 19 -13 15 -14 20 -4 24 20 9 53 3 51 -8z
m-1258 -5 c3 -5 2 -10 -4 -10 -5 0 -13 5 -16 10 -3 6 -2 10 4 10 5 0 13 -4 16
-10z m245 -90 c12 -8 11 -10 -7 -10 -12 0 -25 5 -28 10 -8 13 15 13 35 0z m18
-47 c18 -4 20 -8 10 -14 -11 -7 -10 -11 2 -19 11 -8 4 -9 -25 -4 -52 9 -58 13
-44 30 13 15 23 17 57 7z m-41 -49 c-3 -3 -12 -4 -19 -1 -8 3 -5 6 6 6 11 1
17 -2 13 -5z m-178 -138 c10 -12 8 -13 -9 -9 -25 7 -37 23 -17 23 8 0 20 -6
26 -14z m61 -26 c0 -5 -7 -10 -15 -10 -8 0 -15 5 -15 10 0 6 7 10 15 10 8 0
15 -4 15 -10z m1146 -2 c-10 -5 -23 -5 -33 1 -15 8 -11 10 15 9 26 -1 30 -3
18 -10z m40 -69 c6 -11 -40 -12 -76 -2 l-25 7 25 6 c29 7 68 1 76 -11z m454
-39 c0 -5 -4 -10 -10 -10 -5 0 -10 5 -10 10 0 6 5 10 10 10 6 0 10 -4 10 -10z"/>
<path d="M3520 6397 c0 -7 7 -21 16 -32 11 -15 18 -17 31 -9 9 6 19 17 21 25
4 11 2 12 -9 2 -17 -17 -29 -16 -29 1 0 8 -7 16 -15 20 -8 3 -15 0 -15 -7z"/>
<path d="M3860 6401 c0 -6 4 -12 8 -15 5 -3 9 1 9 9 0 8 -4 15 -9 15 -4 0 -8
-4 -8 -9z"/>
<path d="M1670 5920 c-8 -5 -11 -13 -6 -17 5 -4 11 -3 13 4 2 7 11 9 20 6 11
-4 14 -2 9 5 -9 14 -16 15 -36 2z"/>
<path d="M1680 5880 c0 -5 5 -10 10 -10 6 0 10 5 10 10 0 6 -4 10 -10 10 -5 0
-10 -4 -10 -10z"/>
<path d="M3120 6360 c0 -5 5 -10 10 -10 6 0 10 5 10 10 0 6 -4 10 -10 10 -5 0
-10 -4 -10 -10z"/>
<path d="M3143 6333 c9 -2 23 -2 30 0 6 3 -1 5 -18 5 -16 0 -22 -2 -12 -5z"/>
<path d="M2530 5940 c0 -24 16 -26 36 -5 9 8 14 15 12 16 -41 9 -48 8 -48 -11z"/>
<path d="M3130 5946 c0 -7 10 -16 23 -20 37 -10 41 -7 22 14 -21 23 -45 26
-45 6z"/>
<path d="M2876 5935 c-3 -8 -14 -15 -24 -15 -17 0 -52 -28 -52 -42 0 -3 21 0
47 8 26 8 55 11 66 8 14 -4 18 -2 15 7 -3 8 -15 16 -28 17 -16 3 -19 6 -11 12
8 5 9 10 3 14 -5 3 -12 -1 -16 -9z"/>
<path d="M2984 5923 c-23 -17 -16 -22 24 -16 17 3 32 11 32 19 0 16 -32 14
-56 -3z"/>
<path d="M2650 5894 c0 -19 25 -33 48 -27 12 3 20 9 17 13 -3 5 -14 6 -26 3
-12 -4 -25 0 -30 8 -5 8 -9 9 -9 3z"/>
<path d="M2205 5880 c-9 -15 4 -30 20 -23 8 3 15 0 15 -7 0 -6 5 -8 11 -5 7 5
4 14 -7 26 -19 21 -30 24 -39 9z"/>
<path d="M2760 5856 c0 -2 9 -6 20 -9 11 -3 20 -1 20 4 0 5 -9 9 -20 9 -11 0
-20 -2 -20 -4z"/>
<path d="M4810 5830 c0 -13 40 -13 60 0 11 7 5 10 -22 10 -21 0 -38 -4 -38
-10z"/>
<path d="M1825 5820 c-3 -5 -1 -10 4 -10 6 0 11 5 11 10 0 6 -2 10 -4 10 -3 0
-8 -4 -11 -10z"/>
<path d="M4169 5722 c-25 -8 -58 -44 -53 -57 3 -7 -4 -16 -15 -20 -38 -12 -23
-27 23 -24 24 2 42 1 39 -3 -2 -5 1 -8 8 -8 7 0 4 -6 -6 -14 -15 -11 -17 -17
-7 -28 13 -17 6 -29 -13 -22 -7 3 -15 -2 -18 -10 -4 -10 -1 -16 8 -16 8 0 15
-4 15 -10 0 -5 -6 -10 -13 -10 -7 0 -26 -14 -43 -31 -31 -32 -25 -33 43 -3 24
11 30 19 26 34 -6 22 36 66 72 76 11 3 35 25 53 49 35 46 37 89 3 100 -18 5
-100 3 -122 -3z m41 -126 c0 -3 -4 -8 -10 -11 -5 -3 -10 -1 -10 4 0 6 5 11 10
11 6 0 10 -2 10 -4z"/>
<path d="M4820 5710 c0 -5 14 -10 30 -10 17 0 30 5 30 10 0 6 -13 10 -30 10
-16 0 -30 -4 -30 -10z"/>
<path d="M1960 5690 c0 -5 5 -10 10 -10 6 0 10 5 10 10 0 6 -4 10 -10 10 -5 0
-10 -4 -10 -10z"/>
<path d="M4340 5680 c8 -5 20 -10 25 -10 6 0 3 5 -5 10 -8 5 -19 10 -25 10 -5
0 -3 -5 5 -10z"/>
<path d="M3420 5667 c0 -14 30 -19 45 -7 8 6 19 9 25 5 5 -3 10 -1 10 5 0 6
-16 9 -40 8 -22 -2 -40 -7 -40 -11z"/>
<path d="M5080 5644 c-19 -13 -37 -34 -40 -47 -4 -16 -14 -22 -35 -23 -37 -1
-73 -16 -102 -40 -12 -11 -36 -27 -53 -36 -17 -10 -29 -22 -25 -27 3 -5 -5
-17 -17 -25 -19 -14 -20 -16 -5 -22 10 -3 30 -2 45 4 15 6 39 13 55 16 15 4
27 13 27 20 0 18 78 10 99 -9 18 -18 -9 -32 -74 -38 -28 -3 -52 -6 -55 -8 -3
-1 -10 -3 -17 -3 -6 -1 -27 -16 -46 -33 -19 -17 -38 -29 -43 -25 -4 4 -4 2 -1
-4 10 -17 -33 -50 -91 -70 -30 -11 -67 -31 -82 -46 -15 -14 -40 -34 -55 -44
-20 -13 -25 -23 -20 -41 5 -20 0 -26 -26 -37 -29 -12 -30 -14 -13 -25 18 -11
18 -12 -5 -31 -13 -11 -36 -20 -52 -20 -17 0 -33 -8 -42 -20 -17 -25 -148 -51
-155 -31 -6 17 -31 13 -54 -9 -17 -16 -18 -20 -6 -20 23 0 31 -42 11 -57 -9
-7 -13 -13 -9 -13 21 0 -18 -28 -46 -34 -29 -6 -30 -7 -13 -20 16 -12 12 -12
-31 -6 -51 8 -74 4 -74 -12 0 -5 5 -6 10 -3 6 3 10 1 10 -4 0 -6 -4 -11 -10
-11 -5 0 -10 -4 -10 -9 0 -13 146 -11 181 3 16 6 29 17 29 24 0 10 7 12 24 8
15 -4 36 1 55 12 31 17 40 32 21 32 -5 0 -10 7 -10 15 0 12 20 15 123 13 120
-1 187 6 187 21 0 9 80 12 94 3 14 -8 -54 -32 -93 -32 -33 0 -40 -4 -61 -42
-13 -24 -28 -46 -34 -50 -15 -11 -8 -10 54 7 73 19 101 19 94 0 -5 -11 1 -15
21 -15 15 0 24 4 20 10 -4 6 8 10 27 11 49 2 73 -2 76 -12 2 -5 16 -9 30 -10
15 0 21 -3 15 -6 -7 -2 -13 -11 -13 -19 0 -8 -7 -17 -16 -21 -11 -4 -14 -13
-10 -29 6 -21 3 -24 -21 -24 -37 -1 -80 -24 -63 -35 9 -6 9 -9 0 -15 -9 -6 -8
-15 4 -38 12 -23 13 -32 3 -35 -12 -5 2 -20 28 -31 6 -2 2 -10 -9 -18 -29 -23
-148 -14 -230 16 -37 14 -72 23 -77 20 -5 -3 -17 0 -26 5 -16 9 -16 10 5 11
28 0 74 29 66 41 -3 6 5 7 20 3 17 -4 26 -2 26 6 0 6 -5 8 -10 5 -6 -4 -16 -2
-23 3 -7 6 -34 9 -62 8 -27 -2 -56 2 -62 7 -8 5 -31 5 -60 -2 -99 -23 -197
-39 -208 -34 -7 2 -31 -6 -54 -18 -30 -15 -48 -19 -69 -13 -15 4 -34 9 -42 10
-8 1 -34 9 -57 17 -23 9 -45 12 -48 7 -3 -4 -35 -8 -73 -8 -37 1 -74 -1 -82
-3 -9 -2 -14 2 -13 11 2 12 -12 15 -76 15 -87 0 -108 9 -74 32 22 15 22 16 6
44 -10 16 -21 29 -26 29 -4 0 -18 9 -30 20 -17 16 -34 20 -82 19 -34 -1 -79 5
-104 15 -24 9 -61 16 -82 16 -22 0 -39 5 -39 10 0 6 -15 9 -32 9 l-33 -1 30
-7 c27 -6 28 -7 10 -15 -11 -5 -32 -8 -47 -7 -14 1 -29 -2 -33 -8 -3 -6 1 -11
11 -11 10 0 41 -8 70 -17 54 -18 73 -38 54 -57 -16 -16 -12 -26 16 -36 22 -9
24 -13 14 -25 -7 -8 -9 -22 -6 -31 4 -9 1 -23 -5 -30 -9 -11 -7 -14 10 -14 11
0 21 -4 21 -9 0 -5 7 -16 15 -25 14 -13 11 -16 -22 -21 -80 -13 -132 -27 -150
-40 -21 -17 -83 -19 -133 -6 -19 5 -60 12 -92 15 -44 4 -57 2 -62 -10 -3 -8
-11 -14 -18 -13 -7 1 -24 1 -38 0 -25 -2 -24 -2 5 -15 l30 -13 -30 -10 c-17
-7 -23 -12 -12 -12 10 -1 17 -9 17 -20 0 -12 12 -25 30 -33 37 -16 40 -33 4
-24 -14 4 -23 3 -20 -2 3 -5 -28 -12 -69 -15 -41 -3 -78 -8 -83 -11 -6 -3 -98
-7 -205 -9 -135 -1 -200 -6 -208 -14 -9 -9 -18 -9 -31 -2 -27 14 -65 -12 -65
-44 -1 -21 5 -26 37 -31 21 -3 44 -13 51 -23 12 -14 12 -16 0 -9 -9 6 -12 5
-9 -5 6 -16 43 -13 73 5 36 23 127 26 171 6 21 -10 33 -19 27 -19 -7 -1 -13
-6 -13 -12 0 -7 17 -10 44 -8 24 2 42 1 39 -3 -2 -5 3 -8 11 -8 8 0 17 4 20 9
3 4 50 8 104 8 102 0 136 8 111 24 -8 5 -9 9 -3 9 6 0 20 -11 32 -25 22 -25
42 -33 42 -16 0 5 -8 12 -17 14 -10 3 -4 5 13 6 16 0 35 -4 41 -10 16 -16 153
-18 184 -3 14 7 36 10 47 7 17 -4 22 -1 22 13 1 17 2 17 13 4 13 -17 101 -24
91 -8 -3 5 3 4 14 -3 18 -11 24 -10 41 5 13 12 28 16 43 13 13 -4 37 0 52 9
16 8 31 12 34 9 3 -3 -1 -5 -8 -5 -7 0 -11 -2 -8 -5 3 -3 17 0 31 6 21 10 29
9 42 -5 10 -10 25 -14 40 -10 16 4 27 0 37 -14 19 -28 70 -51 75 -35 3 9 10 9
28 1 27 -12 55 3 55 28 0 8 10 14 23 14 18 0 19 -2 7 -10 -11 -7 -6 -9 20 -8
25 1 44 -6 63 -24 26 -25 27 -25 94 -11 37 8 75 21 84 29 9 8 23 14 30 12 8
-2 14 4 14 12 0 37 127 52 213 24 38 -12 62 -14 98 -8 70 13 67 31 -8 41 -52
7 -64 12 -75 33 -10 21 -10 26 4 34 10 5 23 5 34 -2 21 -14 118 -8 148 7 11 6
30 10 43 10 13 -1 38 2 56 6 33 8 41 -2 20 -23 -7 -7 -10 -12 -7 -13 62 -10
67 -14 71 -49 3 -21 -1 -25 -25 -26 -30 -1 -42 -9 -42 -27 0 -14 -79 -28 -117
-21 -16 3 -28 10 -28 15 0 5 -10 9 -22 8 -13 0 -17 -3 -10 -6 29 -11 8 -22
-45 -22 -73 0 -115 -11 -104 -29 5 -8 38 -13 98 -15 54 -1 89 2 85 7 -3 5 2 6
12 3 10 -4 22 -7 27 -7 6 0 7 -5 4 -10 -3 -6 6 -15 20 -20 34 -13 58 -13 50 0
-3 6 1 10 9 10 9 0 16 -7 16 -15 0 -9 10 -15 26 -15 19 0 25 -4 20 -15 -4 -11
2 -15 21 -15 14 0 23 -3 20 -7 -4 -3 -2 -12 4 -20 7 -8 8 -13 1 -13 -5 0 -12
-8 -16 -17 -3 -10 -9 -24 -12 -32 -5 -10 -1 -11 16 -6 14 4 20 3 16 -3 -3 -5
1 -13 10 -16 10 -4 13 -2 8 6 -5 8 -2 9 10 5 10 -4 21 -7 25 -7 4 0 8 -7 8
-15 0 -10 -6 -13 -19 -9 -16 5 -18 2 -13 -19 8 -29 -9 -44 -30 -27 -8 7 -21
10 -30 7 -8 -4 -17 -2 -20 3 -10 16 -25 12 -25 -6 0 -9 -6 -14 -12 -11 -7 2
-13 9 -13 15 0 6 -6 17 -13 24 -10 10 -14 9 -18 -9 -5 -19 -11 -21 -49 -16
-45 5 -58 -6 -59 -52 -1 -11 -9 -21 -20 -23 -15 -3 -18 0 -13 17 4 18 1 21
-28 21 -37 0 -61 -20 -44 -37 8 -8 4 -18 -12 -34 -44 -44 -66 -50 -159 -43
-83 6 -88 5 -109 -17 -20 -22 -21 -24 -5 -36 16 -12 16 -13 -7 -14 -82 -4
-165 5 -187 19 -23 15 -25 15 -37 -1 -12 -17 -61 -25 -51 -8 11 17 -38 21 -54
4 -14 -14 -12 -15 13 -11 15 3 27 2 27 -2 0 -15 -31 -19 -58 -8 -15 6 -45 13
-67 15 -23 1 -45 10 -52 20 -12 16 -13 16 -13 0 0 -10 -8 -17 -19 -17 -11 0
-22 -4 -25 -9 -8 -12 69 -25 85 -15 8 4 9 3 5 -4 -4 -7 -1 -12 8 -12 9 0 16
-7 16 -15 0 -8 -7 -15 -15 -15 -18 0 -20 -31 -3 -48 19 -19 1 -26 -23 -9 -19
14 -25 14 -50 1 -16 -8 -29 -18 -29 -22 0 -4 -20 -7 -44 -7 -43 0 -66 -9 -53
-21 3 -3 40 -7 81 -7 42 -1 72 -3 66 -5 -5 -2 -5 -11 2 -22 8 -13 16 -16 24
-9 7 6 21 6 38 -1 20 -7 26 -6 26 3 0 7 9 23 20 35 11 12 20 24 20 27 0 3 9
14 20 25 15 15 20 16 20 6 0 -8 10 -17 23 -19 l22 -4 -22 -2 c-13 0 -23 -4
-23 -7 0 -10 44 -43 59 -44 11 0 11 3 1 15 -10 12 -7 15 17 20 15 4 36 10 45
15 11 6 19 6 23 0 3 -6 1 -10 -4 -10 -6 0 -11 -4 -11 -10 0 -17 83 -9 118 11
18 11 49 19 68 19 38 0 41 4 18 28 -16 15 -15 17 12 24 17 5 30 4 32 -2 2 -6
10 -10 18 -10 8 0 14 -4 14 -10 0 -5 7 -10 15 -10 8 0 15 -5 15 -10 0 -6 -7
-13 -15 -16 -20 -8 -19 -31 2 -42 13 -8 11 -11 -15 -17 -18 -3 -45 -4 -61 0
-27 6 -29 4 -35 -36 -5 -32 -10 -39 -18 -31 -14 14 -48 16 -48 3 0 -5 6 -12
13 -14 9 -4 9 -6 -1 -6 -7 -1 -10 -6 -6 -13 4 -7 3 -8 -4 -4 -7 4 -12 13 -12
19 0 21 -59 18 -70 -3 -9 -16 -7 -20 5 -20 8 0 15 -5 15 -11 0 -6 7 -8 16 -5
8 3 12 2 9 -4 -3 -6 1 -13 9 -16 9 -3 16 -12 16 -20 0 -8 -6 -11 -15 -8 -8 4
-15 1 -15 -5 0 -6 6 -11 13 -11 8 0 7 -3 -3 -10 -12 -7 -9 -14 19 -39 26 -23
32 -35 28 -53 -6 -24 -47 -57 -47 -38 0 5 5 10 12 10 9 0 9 3 0 12 -9 9 -22 6
-54 -10 -24 -12 -56 -21 -73 -20 -25 3 -29 0 -30 -22 0 -21 -4 -24 -25 -22
-33 5 -35 8 -20 27 10 13 9 15 -9 15 -17 0 -20 -4 -15 -29 5 -24 1 -32 -20
-46 -15 -10 -30 -15 -33 -11 -4 4 3 9 15 13 26 6 27 10 7 29 -13 14 -16 14
-21 0 -3 -9 -14 -16 -23 -16 -10 0 -26 -6 -36 -14 -18 -13 -18 -14 -1 -32 12
-11 15 -19 7 -22 -20 -7 -12 -25 9 -19 12 3 20 0 20 -8 0 -7 7 -15 15 -19 9
-3 12 -12 8 -22 -5 -14 -3 -15 15 -5 15 8 21 8 24 -1 3 -8 10 -8 26 1 13 7 20
17 17 24 -4 7 1 3 9 -7 9 -11 16 -24 16 -29 0 -5 7 -6 16 -3 8 3 12 2 9 -4 -3
-6 5 -10 19 -10 29 0 30 3 16 30 -8 15 -6 17 11 13 11 -3 25 -16 31 -29 6 -13
15 -21 20 -18 4 3 6 10 3 15 -4 5 -2 9 4 9 5 0 13 -5 16 -10 4 -6 11 -7 17 -4
6 4 14 0 19 -7 6 -10 9 -11 9 -1 0 6 7 12 15 12 8 0 15 -5 15 -12 0 -6 6 -4
13 6 15 20 35 22 125 9 35 -5 68 -16 73 -24 5 -8 9 -10 9 -5 0 5 7 3 15 -4 13
-11 14 -10 9 4 -3 9 -1 16 5 16 6 0 11 -9 11 -20 0 -23 -10 -26 -28 -8 -9 9
-12 9 -12 0 0 -7 -7 -12 -15 -12 -8 0 -20 -9 -27 -20 -7 -11 -16 -20 -20 -20
-5 0 -8 9 -8 20 0 23 -20 26 -39 8 -10 -11 -12 -10 -9 1 2 8 -5 17 -16 19 -11
2 -16 0 -12 -7 4 -6 2 -11 -4 -11 -7 0 -10 -7 -6 -15 4 -11 -1 -14 -19 -13
-30 3 -32 15 -5 38 l20 18 -20 5 c-12 3 -24 -1 -30 -11 -5 -10 -10 -12 -10 -4
0 20 -18 14 -25 -9 -5 -15 -10 -18 -18 -10 -18 18 -44 13 -50 -9 -6 -22 -47
-29 -47 -8 0 9 -3 9 -11 1 -6 -6 -19 -9 -28 -6 -12 4 -10 1 4 -11 11 -10 14
-14 6 -10 -9 4 -12 3 -8 -3 4 -6 19 -14 34 -18 15 -3 31 -12 35 -18 4 -8 11
-7 22 3 9 7 20 10 23 6 4 -4 1 -11 -7 -16 -10 -6 -11 -12 -2 -22 16 -20 4 -56
-22 -60 -13 -2 -20 -10 -20 -20 1 -10 -1 -16 -5 -14 -4 3 -25 -4 -46 -14 -22
-10 -33 -19 -25 -19 9 -1 21 4 27 10 8 8 16 8 30 -1 11 -7 12 -10 3 -7 -9 3
-24 -1 -34 -8 -16 -12 -16 -16 -2 -42 14 -26 15 -26 16 -5 0 18 6 22 29 22 17
0 33 -5 37 -12 5 -7 11 -3 17 13 l10 24 4 -23 c4 -18 9 -21 29 -16 17 4 24 2
24 -9 0 -8 7 -18 15 -21 12 -4 14 -10 5 -25 -14 -27 -13 -36 4 -22 10 9 16 9
21 1 5 -8 15 -5 30 10 23 21 23 21 37 1 13 -18 16 -19 45 -4 21 10 30 20 26
29 -7 19 29 47 39 32 3 -6 1 -19 -5 -29 -6 -10 -8 -21 -4 -25 11 -12 77 -11
77 1 1 5 9 -3 18 -20 9 -16 24 -32 32 -34 36 -9 60 -8 60 1 0 6 14 8 31 6 20
-3 33 0 36 9 4 10 9 11 19 2 8 -6 14 -8 14 -4 0 4 6 2 13 -4 8 -6 16 -8 19 -6
3 3 5 -5 4 -17 -1 -19 -6 -22 -30 -20 -16 2 -37 -4 -49 -15 -20 -17 -21 -17
-8 0 12 16 12 17 -5 10 -10 -3 -28 -16 -38 -27 -12 -13 -17 -15 -14 -6 3 8 -3
24 -13 34 -11 11 -20 15 -20 8 -1 -7 -2 -17 -3 -24 -1 -15 -23 -22 -31 -9 -3
6 -14 11 -23 11 -12 0 -13 -3 -5 -11 13 -13 6 -39 -9 -39 -6 0 -8 6 -5 13 4
11 -7 13 -55 8 -5 -1 -8 -7 -8 -15 0 -21 -20 -30 -33 -17 -9 9 -8 11 6 6 12
-5 17 -2 17 9 0 20 -38 22 -46 2 -6 -15 -51 -19 -60 -5 -3 5 -10 9 -15 9 -6 0
-7 -5 -3 -12 5 -8 2 -9 -9 -5 -9 3 -19 2 -22 -3 -7 -12 -35 -1 -35 14 0 6 -9
17 -21 24 -18 11 -23 11 -33 -4 -10 -12 -20 -15 -42 -10 -19 4 -24 3 -15 -2
16 -12 -1 -24 -22 -16 -8 3 -18 1 -22 -5 -4 -7 4 -11 20 -11 34 0 22 -20 -13
-21 -26 -1 -26 -1 6 -10 34 -10 37 -16 22 -39 -9 -13 -12 -13 -21 2 -5 10 -14
18 -18 18 -5 0 -26 8 -47 17 -22 9 -41 17 -44 18 -17 2 -31 19 -26 31 8 20
-11 17 -24 -3 -11 -17 -11 -17 -6 0 3 9 2 18 -2 18 -41 7 -62 6 -67 -1 -9 -14
-35 0 -35 19 0 10 -3 12 -8 4 -4 -6 -22 -13 -40 -16 -18 -3 -40 -11 -47 -17
-8 -7 -28 -10 -44 -8 -17 2 -27 0 -24 -5 3 -5 -4 -6 -17 -2 -15 5 -20 4 -16
-4 10 -15 -17 -14 -32 1 -9 9 -12 9 -12 -1 0 -7 -3 -10 -8 -7 -4 2 -18 -2 -32
-10 -14 -7 -19 -13 -12 -14 26 0 10 -19 -25 -30 -49 -16 -85 -39 -78 -50 10
-15 -14 -21 -48 -12 -21 6 -40 6 -50 0 -12 -6 -17 -5 -17 2 0 8 -18 11 -55 8
-31 -1 -57 1 -59 7 -3 6 -5 4 -5 -2 -1 -20 -19 -15 -26 7 -4 11 -10 18 -15 15
-14 -9 -70 16 -81 36 -8 16 -6 19 18 19 26 0 26 1 7 15 -10 8 -30 15 -43 15
-17 0 -21 4 -17 15 3 9 -3 24 -14 35 -22 22 -35 27 -24 8 5 -8 2 -9 -9 -5 -10
3 -17 2 -17 -3 0 -18 -20 -10 -21 8 -1 11 -4 8 -8 -8 -4 -16 -14 -25 -26 -25
-11 0 -26 -4 -32 -8 -8 -5 -13 -4 -13 3 0 6 -11 3 -26 -7 -29 -19 -50 -23
-149 -28 -38 -2 -81 -6 -95 -7 -14 -2 -28 1 -32 6 -4 6 -12 -2 -18 -16 -7 -14
-29 -35 -51 -47 -41 -24 -59 -20 -103 20 -23 22 -33 24 -39 7 -3 -9 -10 -7
-21 7 -20 25 -15 40 12 39 12 -1 19 3 16 8 -3 5 -19 6 -35 3 -33 -8 -96 12
-104 33 -3 9 0 12 8 9 8 -3 20 -1 28 4 9 7 -8 8 -51 4 -47 -4 -69 -11 -81 -25
-9 -10 -19 -17 -22 -14 -10 10 -46 -7 -42 -19 5 -13 -87 -57 -118 -57 -32 0
-147 -32 -147 -41 0 -5 -8 -9 -18 -9 -10 0 -27 -6 -37 -14 -24 -17 -60 -10
-44 10 9 11 6 18 -12 34 -13 11 -30 17 -36 15 -7 -2 -13 0 -13 4 0 11 31 25
49 22 7 -1 11 4 8 11 -2 7 -10 12 -16 11 -6 -2 -10 3 -8 10 1 6 -6 11 -15 9
-9 -1 -22 7 -28 18 -6 11 -15 18 -21 15 -5 -4 -13 5 -18 18 -8 20 -29 37 -47
37 -9 0 2 -26 16 -37 10 -8 11 -12 3 -13 -7 0 -10 -7 -7 -15 4 -10 0 -15 -11
-15 -9 0 -14 4 -10 9 3 5 -4 16 -16 24 -14 11 -17 16 -7 19 10 4 8 10 -6 27
-20 22 -20 22 3 28 12 3 20 11 17 18 -2 7 1 18 7 24 8 8 7 11 -3 11 -11 0 -11
3 -2 12 19 19 15 25 -30 44 -42 17 -42 18 -15 22 23 3 27 7 21 25 -3 12 -7 22
-8 22 0 0 -11 6 -24 13 -16 9 -28 10 -42 2 -10 -5 -34 -9 -52 -9 -18 1 -25 3
-16 6 10 2 18 9 18 15 0 6 -9 8 -22 4 -36 -11 -64 -17 -50 -10 6 3 12 10 12
15 0 16 -28 10 -40 -8 -11 -17 -11 -17 -6 1 5 16 3 17 -21 11 -16 -4 -47 -8
-70 -9 -37 -2 -76 -16 -45 -16 7 0 12 -4 12 -8 0 -5 -14 -7 -30 -4 -18 3 -30
0 -30 -7 0 -6 -11 -11 -25 -11 -26 0 -34 -15 -12 -23 6 -2 -3 -7 -21 -11 -32
-8 -33 -9 -16 -27 13 -15 14 -19 3 -23 -55 -17 -55 -16 -25 -31 16 -8 36 -15
45 -16 9 0 2 -7 -17 -16 -23 -12 -31 -22 -27 -34 4 -11 0 -19 -12 -22 -19 -4
-17 -6 32 -22 28 -9 2 -23 -37 -19 -24 3 -29 0 -26 -14 2 -12 11 -16 33 -14
l30 3 -23 -16 c-12 -9 -20 -20 -17 -25 3 -5 -17 -8 -45 -7 -28 1 -46 3 -40 5
22 8 8 21 -19 18 -21 -2 -28 0 -24 10 3 10 -3 14 -19 14 -13 0 -30 6 -36 12
-10 10 -17 10 -32 0 -24 -14 -100 -16 -100 -2 0 6 -7 10 -15 10 -8 0 -15 6
-15 14 0 10 -13 14 -47 14 -34 0 -51 5 -60 18 -7 10 -13 13 -13 6 0 -13 -71
-34 -98 -30 -9 2 -20 7 -24 12 -3 5 -21 9 -39 8 -23 0 -29 2 -19 8 11 7 9 13
-11 29 -13 11 -29 19 -36 16 -7 -2 -10 2 -6 12 5 13 1 15 -21 9 -18 -4 -25 -3
-21 4 3 5 0 10 -7 10 -7 0 -23 3 -35 6 l-23 6 0 -1231 0 -1231 281 0 c154 1
304 5 332 10 36 5 55 4 60 -4 5 -6 7 -2 4 12 -3 15 0 22 9 22 8 0 13 3 12 8
-1 4 3 17 10 29 9 17 9 22 -1 26 -7 4 -6 6 4 6 9 1 22 -6 29 -14 10 -12 10
-15 -3 -15 -24 0 -32 -22 -13 -36 16 -11 16 -13 -5 -27 -20 -15 -9 -16 139
-15 149 0 161 1 165 19 3 11 14 19 25 19 11 0 29 3 39 7 17 6 17 5 -1 -15 -15
-17 -22 -19 -33 -11 -15 13 -29 6 -19 -9 5 -9 47 -10 71 -1 6 1 27 0 47 -4 24
-5 46 -4 59 4 16 8 20 8 14 0 -5 -8 90 -11 358 -9 220 1 363 6 360 12 -4 5 6
6 23 1 16 -5 732 -10 1592 -12 l1562 -3 0 2781 0 2781 -26 -16 c-14 -10 -33
-14 -44 -11 -24 8 -25 18 -5 35 12 10 18 10 30 0 10 -9 15 -9 15 -1 0 6 7 11
15 11 11 0 15 12 15 45 0 25 -1 45 -2 45 -2 -1 -19 -12 -38 -26z m-257 -641
c-7 -2 -19 -2 -25 0 -7 3 -2 5 12 5 14 0 19 -2 13 -5z m-69 -23 c-22 -9 -29
-6 -20 9 4 6 14 7 23 4 15 -6 14 -7 -3 -13z m124 -77 c-10 -2 -26 -2 -35 0
-10 3 -2 5 17 5 19 0 27 -2 18 -5z m-568 -23 c12 -8 11 -10 -7 -10 -13 0 -23
5 -23 10 0 13 11 13 30 0z m557 4 c-3 -3 -12 -4 -19 -1 -8 3 -5 6 6 6 11 1 17
-2 13 -5z m-587 -33 c0 -5 -11 -11 -25 -13 -24 -5 -32 2 -18 15 9 10 43 8 43
-2z m-75 -31 c3 -6 -4 -10 -17 -10 -18 0 -20 2 -8 10 19 12 18 12 25 0z m-631
-247 c20 -10 38 -24 41 -32 8 -19 -25 -42 -55 -38 -34 5 -76 -7 -73 -21 3 -12
-55 -6 -70 8 -10 9 39 83 61 92 29 12 60 9 96 -9z m101 -13 c-3 -5 -10 -10
-16 -10 -5 0 -9 5 -9 10 0 6 7 10 16 10 8 0 12 -4 9 -10z m199 -111 c-7 -13
-44 -17 -44 -6 0 7 11 12 24 12 13 0 22 -3 20 -6z m706 7 c0 -3 -4 -8 -10 -11
-5 -3 -10 -1 -10 4 0 6 5 11 10 11 6 0 10 -2 10 -4z m-1090 -196 c0 -16 -17
-19 -35 -6 -24 18 -11 40 16 26 10 -6 19 -15 19 -20z m1618 -22 c-5 -15 -35
-19 -62 -7 -18 8 -18 9 6 4 15 -3 30 -1 33 5 9 14 28 13 23 -2z m-28 -43 c10
-12 10 -15 -4 -15 -9 0 -16 7 -16 15 0 8 2 15 4 15 2 0 9 -7 16 -15z m-323
-221 c-3 -3 -12 -4 -19 -1 -8 3 -5 6 6 6 11 1 17 -2 13 -5z m167 -18 c-3 -8 3
-16 15 -19 24 -6 28 -27 6 -27 -17 0 -39 36 -30 50 9 15 15 12 9 -4z m-134
-26 c0 -5 -5 -10 -11 -10 -5 0 -7 5 -4 10 3 6 8 10 11 10 2 0 4 -4 4 -10z m87
-22 c-3 -8 -6 -5 -6 6 -1 11 2 17 5 13 3 -3 4 -12 1 -19z m51 -183 c-8 -7 -9
-6 -3 4 6 11 4 13 -8 8 -12 -5 -17 -1 -17 12 0 11 -3 21 -7 24 -5 2 -2 2 5 1
7 -2 12 6 12 19 1 15 5 9 15 -18 10 -29 11 -42 3 -50z m52 60 c0 -8 -2 -15 -4
-15 -2 0 -11 -3 -19 -6 -14 -5 -16 7 -8 34 3 10 31 -1 31 -13z m-120 -65 c0
-5 -2 -10 -4 -10 -3 0 -8 5 -11 10 -3 6 -1 10 4 10 6 0 11 -4 11 -10z m-675
-168 c-3 -3 -11 0 -18 7 -9 10 -8 11 6 5 10 -3 15 -9 12 -12z m-500 -42 c-3
-5 -2 -10 4 -10 6 0 7 -8 4 -17 -6 -15 -7 -14 -13 3 -7 18 -4 34 6 34 3 0 2
-4 -1 -10z m-85 -20 c0 -5 -5 -10 -11 -10 -5 0 -7 5 -4 10 3 6 8 10 11 10 2 0
4 -4 4 -10z m768 -19 c14 -1 17 -31 2 -31 -5 0 -10 5 -10 11 0 5 -4 8 -9 5 -5
-3 -14 1 -20 8 -10 12 -9 14 6 11 10 -2 24 -4 31 -4z m117 -41 c3 -6 -1 -7 -9
-4 -18 7 -21 14 -7 14 6 0 13 -4 16 -10z m-283 -32 c-12 -12 -35 -1 -27 12 3
5 13 6 21 3 10 -4 12 -9 6 -15z m-22 -18 c24 -15 -2 -32 -46 -28 -63 5 -52 21
26 37 3 0 12 -4 20 -9z m270 -230 c0 -5 -4 -10 -10 -10 -5 0 -10 5 -10 10 0 6
5 10 10 10 6 0 10 -4 10 -10z m-484 -67 c-10 -10 -19 5 -10 18 6 11 8 11 12 0
2 -7 1 -15 -2 -18z m149 -76 c-8 -4 -20 -5 -26 -2 -5 4 -16 2 -23 -4 -9 -8
-13 -6 -13 7 -1 34 17 43 48 25 23 -14 26 -19 14 -26z m-208 27 c-3 -3 -12 -4
-19 -1 -8 3 -5 6 6 6 11 1 17 -2 13 -5z m573 -114 c0 -11 -7 -20 -15 -20 -13
0 -13 3 -3 20 7 11 14 20 15 20 2 0 3 -9 3 -20z m-291 -31 c-16 -10 -23 -4
-14 10 3 6 11 8 17 5 6 -4 5 -9 -3 -15z m261 -19 c0 -5 -8 -10 -17 -10 -15 0
-16 2 -3 10 19 12 20 12 20 0z m-277 -101 c-6 -6 -19 -9 -29 -6 -16 4 -15 5 4
6 12 0 22 6 22 13 0 6 3 8 7 5 4 -4 2 -12 -4 -18z m157 5 c0 -8 -4 -12 -10 -9
-5 3 -10 10 -10 16 0 5 5 9 10 9 6 0 10 -7 10 -16z m40 12 c0 -3 -4 -8 -10
-11 -5 -3 -10 -1 -10 4 0 6 5 11 10 11 6 0 10 -2 10 -4z m-450 -20 c0 -3 -4
-8 -10 -11 -5 -3 -10 -1 -10 4 0 6 5 11 10 11 6 0 10 -2 10 -4z m170 -6 c0 -5
-5 -10 -11 -10 -5 0 -7 5 -4 10 3 6 8 10 11 10 2 0 4 -4 4 -10z m853 -23 c-4
-6 1 -8 11 -4 20 8 39 0 31 -13 -3 -5 -19 -4 -35 2 -32 10 -40 25 -15 25 8 0
11 -5 8 -10z m-920 -51 c11 4 17 1 17 -8 0 -23 -44 -15 -48 8 -2 13 -1 15 6 6
5 -7 16 -10 25 -6z m512 -26 c3 -5 1 -10 -4 -10 -6 0 -11 5 -11 10 0 6 2 10 4
10 3 0 8 -4 11 -10z m-495 -10 c12 -8 11 -13 -8 -33 -12 -13 -19 -27 -15 -30
3 -4 -6 -7 -20 -7 -15 0 -27 5 -27 10 0 6 9 10 20 10 12 0 20 6 19 13 -5 43 4
55 31 37z m310 -15 c-7 -8 -9 -16 -4 -16 20 -3 50 4 61 12 7 7 14 6 18 -1 3
-6 11 -8 16 -5 5 4 9 3 10 -2 0 -4 2 -18 3 -30 3 -26 -21 -32 -30 -9 -3 8 -12
12 -19 10 -7 -3 -16 -1 -19 5 -4 6 -13 8 -20 5 -7 -3 -19 2 -26 11 -12 14 -11
18 1 26 20 13 23 11 9 -6z m-170 -25 c0 -5 -7 -7 -15 -4 -8 4 -15 8 -15 10 0
2 7 4 15 4 8 0 15 -4 15 -10z m-80 -26 c0 -20 -7 -17 -20 6 -9 16 -8 18 5 14
8 -4 15 -12 15 -20z m-3085 6 c-3 -5 -10 -10 -16 -10 -5 0 -9 5 -9 10 0 6 7
10 16 10 8 0 12 -4 9 -10z m3270 -20 c3 -5 -3 -10 -14 -10 -12 0 -21 5 -21 10
0 6 6 10 14 10 8 0 18 -4 21 -10z m-2972 -7 c-7 -2 -19 -2 -25 0 -7 3 -2 5 12
5 14 0 19 -2 13 -5z m2647 3 c0 -2 -7 -7 -16 -10 -8 -3 -12 -2 -9 4 6 10 25
14 25 6z m215 -7 c11 -16 1 -19 -13 -3 -7 8 -8 14 -3 14 5 0 13 -5 16 -11z
m155 -43 c0 -3 -4 -8 -10 -11 -5 -3 -10 -1 -10 4 0 6 5 11 10 11 6 0 10 -2 10
-4z m-126 -46 c-6 -5 -24 21 -24 34 0 6 6 1 14 -10 8 -10 12 -21 10 -24z m-39
20 c3 -6 -1 -7 -9 -4 -18 7 -21 14 -7 14 6 0 13 -4 16 -10z m275 -30 c0 -19
-20 -27 -33 -13 -8 7 11 33 24 33 5 0 9 -9 9 -20z m-3513 -26 c-3 -3 -12 -4
-19 -1 -8 3 -5 6 6 6 11 1 17 -2 13 -5z m3483 -10 c0 -2 -7 -4 -15 -4 -8 0
-15 4 -15 10 0 5 7 7 15 4 8 -4 15 -8 15 -10z m-3096 -71 c-13 -13 -19 -14
-22 -5 -2 7 -9 9 -14 6 -7 -4 -8 -2 -4 4 4 7 18 12 32 12 24 0 25 -1 8 -17z
m3191 -23 c5 -8 12 -7 23 2 13 11 14 11 10 -2 -6 -19 -40 -21 -56 -4 -10 11
-10 14 2 14 8 0 18 -5 21 -10z m-2598 -76 c-3 -3 -12 -4 -19 -1 -8 3 -5 6 6 6
11 1 17 -2 13 -5z m673 2 c0 -2 3 -11 6 -20 7 -19 -26 -22 -44 -4 -9 9 -12 9
-12 1 0 -7 5 -15 10 -18 12 -8 13 -25 1 -25 -11 0 -24 48 -16 60 6 10 55 14
55 6z m910 -6 c0 -5 -2 -10 -4 -10 -3 0 -8 5 -11 10 -3 6 -1 10 4 10 6 0 11
-4 11 -10z m-1663 -1732 c-3 -7 -5 -2 -5 12 0 14 2 19 5 13 2 -7 2 -19 0 -25z
m320 26 c-3 -3 -12 -4 -19 -1 -8 3 -5 6 6 6 11 1 17 -2 13 -5z m-89 -31 c-10
-2 -28 -2 -40 0 -13 2 -5 4 17 4 22 1 32 -1 23 -4z m65 0 c-7 -2 -19 -2 -25 0
-7 3 -2 5 12 5 14 0 19 -2 13 -5z m-353 -93 c0 -5 -5 -10 -11 -10 -5 0 -7 5
-4 10 3 6 8 10 11 10 2 0 4 -4 4 -10z m-35 -62 c17 -3 15 -6 -12 -20 -21 -10
-35 -13 -39 -6 -3 5 -15 7 -26 5 -16 -4 -17 -3 -7 9 7 8 20 12 35 8 20 -5 23
-3 18 12 -3 12 -3 15 3 8 4 -7 17 -13 28 -16z m-98 6 c-3 -3 -12 -4 -19 -1 -8
3 -5 6 6 6 11 1 17 -2 13 -5z m526 -35 c-6 -6 -17 -8 -24 -3 -9 5 -8 9 7 14
23 9 31 3 17 -11z m-410 -6 c-4 -10 -2 -14 4 -10 7 5 9 0 6 -12 -4 -15 -14
-19 -48 -19 -26 0 -49 6 -56 14 -9 12 -5 14 25 14 20 0 36 -4 36 -10 0 -5 7
-10 17 -10 15 0 15 2 -1 19 -13 15 -14 20 -4 24 23 9 28 7 21 -10z m317 3 c0
-3 -4 -8 -10 -11 -5 -3 -10 -1 -10 4 0 6 5 11 10 11 6 0 10 -2 10 -4z m-468
-28 c-7 -7 -12 -8 -12 -2 0 14 12 26 19 19 2 -3 -1 -11 -7 -17z m523 12 c3 -5
1 -18 -4 -27 -11 -20 -12 -19 -16 15 -2 23 9 30 20 12z m68 -39 c-3 -13 23
-15 31 -2 4 5 1 12 -4 14 -6 3 -5 4 2 3 7 -2 12 -9 11 -15 -2 -6 2 -11 7 -11
6 0 10 3 10 8 0 4 14 7 30 8 17 1 30 -3 30 -8 0 -11 -16 -16 -66 -20 -51 -4
-61 -22 -14 -26 28 -2 32 0 20 9 -13 9 -12 10 3 5 10 -3 28 -6 40 -7 21 0 21
-1 2 -10 -17 -8 -16 -9 8 -5 16 2 34 -2 40 -8 7 -6 23 -17 37 -23 l25 -12 -25
-1 c-23 -1 -23 -2 -5 -10 17 -7 16 -9 -10 -10 -16 -1 -39 -3 -49 -5 -22 -4
-44 15 -38 33 2 6 13 12 25 13 20 1 20 2 -3 9 -14 4 -38 8 -53 9 -23 1 -26 -1
-15 -13 7 -7 20 -11 28 -8 10 4 9 0 -4 -13 -18 -18 -18 -19 0 -26 14 -6 15 -8
4 -9 -8 -1 -28 -4 -43 -6 -19 -3 -26 -1 -22 6 3 5 14 10 23 10 16 1 16 1 0 10
-18 11 -51 3 -42 -11 3 -5 1 -9 -4 -9 -6 0 -12 7 -16 15 -3 8 -1 15 4 15 6 0
10 9 10 21 0 11 -4 17 -10 14 -5 -3 -10 -1 -10 4 0 6 8 12 18 12 15 1 15 2 0
6 -18 5 -21 43 -3 55 13 10 31 3 28 -11z m-383 -16 c0 -2 -13 -11 -28 -19 -30
-15 -86 -11 -61 5 8 5 17 3 21 -4 6 -9 10 -8 18 3 5 8 10 11 10 6 0 -6 5 -5
12 2 12 12 28 16 28 7z m111 -12 c12 -16 12 -17 -1 -7 -8 6 -22 14 -30 17 -13
5 -12 6 1 6 9 1 23 -7 30 -16z m176 -8 c10 -22 9 -25 -8 -25 -10 0 -19 5 -19
10 0 6 -10 9 -22 9 -17 -1 -18 -3 -6 -6 19 -5 33 -37 23 -53 -3 -6 1 -7 9 -4
9 3 16 10 16 15 0 15 37 10 43 -5 7 -17 -16 -28 -40 -19 -10 4 -14 2 -9 -5 3
-6 1 -14 -5 -18 -8 -5 -9 -3 -4 5 5 9 0 12 -16 11 -13 -1 -35 -1 -49 0 l-25 2
25 8 c23 7 22 8 -10 10 -19 1 -28 4 -20 7 8 2 22 7 30 10 8 4 21 5 29 4 7 -1
10 2 6 8 -3 6 -12 11 -18 11 -7 0 -13 9 -14 19 -2 19 3 21 62 29 6 1 15 -9 22
-23z m33 15 c0 -5 -5 -10 -11 -10 -5 0 -7 5 -4 10 3 6 8 10 11 10 2 0 4 -4 4
-10z m-573 -6 c-3 -3 -12 -4 -19 -1 -8 3 -5 6 6 6 11 1 17 -2 13 -5z m77 -9
c-4 -9 0 -15 10 -15 9 0 16 5 16 10 0 6 7 10 15 10 8 0 15 -7 15 -15 0 -8 7
-15 15 -15 8 0 15 -9 15 -20 0 -11 -7 -20 -15 -20 -8 0 -15 -4 -15 -9 0 -5
-20 -9 -45 -9 -25 0 -45 4 -45 9 0 4 7 5 17 2 11 -4 14 -3 9 6 -5 7 -14 10
-21 7 -8 -3 -12 4 -12 20 0 13 3 24 8 24 5 0 9 4 9 9 0 5 -10 7 -22 3 -14 -3
-19 -2 -14 6 4 7 20 12 36 12 22 0 28 -4 24 -15z m-151 -2 c-7 -2 -21 -2 -30
0 -10 3 -4 5 12 5 17 0 24 -2 18 -5z m67 -45 c0 -4 -6 -5 -14 -2 -8 3 -12 12
-9 21 5 12 7 12 14 1 5 -7 9 -16 9 -20z m287 25 c-4 -3 -2 -12 4 -20 9 -10 6
-13 -15 -13 -19 0 -26 5 -26 20 0 14 7 20 22 20 12 0 18 -3 15 -7z m-71 -23
c0 -12 -4 -16 -9 -11 -5 5 -6 14 -3 20 10 15 12 14 12 -9z m219 10 c-11 -5
-27 -9 -35 -9 -13 -1 -13 0 0 9 8 5 24 9 35 9 l20 0 -20 -9z m-745 -4 c0 -3
-4 -8 -10 -11 -5 -3 -10 -1 -10 4 0 6 5 11 10 11 6 0 10 -2 10 -4z m-30 -26
c18 -12 2 -12 -25 0 -13 6 -15 9 -5 9 8 0 22 -4 30 -9z m380 -9 c0 -5 -13 -14
-30 -20 -16 -5 -30 -14 -30 -18 0 -5 -9 -14 -19 -20 -16 -10 -20 -9 -24 8 -4
16 -2 19 15 13 14 -4 18 -2 14 5 -11 17 16 40 47 41 15 0 27 -4 27 -9z m280
-20 c0 -4 -9 -7 -20 -7 -11 0 -20 4 -20 9 0 5 -10 7 -21 4 -12 -3 -18 -2 -13
3 22 20 74 14 74 -9z m86 18 c8 -13 -13 -29 -38 -29 -17 0 -17 1 -1 20 20 23
29 25 39 9z m-841 -39 c3 -5 2 -10 -4 -10 -5 0 -13 5 -16 10 -3 6 -2 10 4 10
5 0 13 -4 16 -10z m915 1 c0 -4 24 -6 53 -3 47 4 51 3 37 -11 -8 -9 -32 -17
-54 -19 -32 -2 -40 1 -47 20 -5 13 -5 22 1 22 6 0 10 -4 10 -9z m290 2 c-8 -3
-20 -12 -27 -20 -12 -16 -58 -9 -48 7 3 5 12 7 19 4 8 -3 17 -1 21 5 3 6 16
11 28 10 15 0 17 -2 7 -6z m57 1 c-3 -3 -12 -4 -19 -1 -8 3 -5 6 6 6 11 1 17
-2 13 -5z m-957 -8 c0 -2 -7 -7 -16 -10 -8 -3 -12 -2 -9 4 6 10 25 14 25 6z
m193 -7 c12 0 16 -3 9 -6 -6 -2 -10 -9 -6 -14 11 -18 -16 -9 -38 13 -17 17
-18 20 -4 15 10 -4 27 -7 39 -8z m173 3 c-4 -7 100 -7 179 0 23 2 30 -2 33
-17 l4 -20 -17 20 c-9 11 -13 14 -10 7 5 -10 0 -13 -21 -12 -49 3 -61 1 -46
-9 11 -7 11 -9 -2 -14 -10 -4 -16 -1 -16 8 0 17 -34 23 -79 14 -44 -10 -66 -2
-50 17 12 15 34 20 25 6z m-689 -18 c-3 -3 -12 -4 -19 -1 -8 3 -5 6 6 6 11 1
17 -2 13 -5z m130 0 c-3 -3 -12 -4 -19 -1 -8 3 -5 6 6 6 11 1 17 -2 13 -5z
m193 -36 c0 -13 -28 -9 -34 5 -5 10 -7 10 -12 0 -3 -7 -10 -13 -16 -13 -7 0
-7 5 1 13 6 8 8 17 5 20 -4 3 8 1 25 -6 17 -6 31 -15 31 -19z m102 12 c-13
-15 -29 -19 -55 -18 -20 2 -37 6 -37 9 0 11 47 20 64 13 9 -3 16 -1 16 5 0 6
7 11 15 11 13 0 13 -3 -3 -20z m-735 -16 c-3 -3 -12 -4 -19 -1 -8 3 -5 6 6 6
11 1 17 -2 13 -5z m-210 -30 c-3 -3 -12 -4 -19 -1 -8 3 -5 6 6 6 11 1 17 -2
13 -5z m216 -1 c3 -5 -8 -8 -25 -9 -20 -1 -25 2 -16 7 16 11 35 11 41 2z"/>
<path d="M2165 270 c-3 -5 -2 -10 4 -10 5 0 13 5 16 10 3 6 2 10 -4 10 -5 0
-13 -4 -16 -10z"/>
<path d="M2310 170 c20 -13 33 -13 25 0 -3 6 -14 10 -23 10 -15 0 -15 -2 -2
-10z"/>
<path d="M1647 208 l-28 -10 26 -14 c15 -8 28 -14 29 -14 1 0 3 11 4 25 1 14
1 25 -1 24 -1 0 -15 -5 -30 -11z"/>
<path d="M2063 103 c9 -2 25 -2 35 0 9 3 1 5 -18 5 -19 0 -27 -2 -17 -5z"/>
<path d="M4175 5450 c3 -5 8 -10 11 -10 2 0 4 5 4 10 0 6 -5 10 -11 10 -5 0
-7 -4 -4 -10z"/>
<path d="M904 5431 c11 -11 25 -21 31 -21 20 0 38 -27 25 -35 -7 -5 -5 -11 7
-20 15 -11 21 -11 36 3 13 12 20 13 29 4 18 -18 51 -15 44 4 -3 9 -6 20 -6 25
0 5 -6 9 -14 9 -7 0 -20 7 -27 16 -9 11 -23 14 -45 11 -18 -3 -34 -2 -36 3 -2
5 -16 12 -33 16 l-30 7 19 -22z m101 -31 c3 -5 1 -10 -4 -10 -6 0 -11 5 -11
10 0 6 2 10 4 10 3 0 8 -4 11 -10z"/>
<path d="M1645 5440 c-34 -8 -21 -17 30 -22 21 -2 30 1 30 12 0 17 -19 21 -60
10z"/>
<path d="M4252 5428 c-19 -19 -14 -28 18 -28 17 0 30 4 30 10 0 5 -8 6 -17 3
-12 -5 -15 -2 -10 10 7 20 -4 22 -21 5z"/>
<path d="M3805 5419 c-4 -6 -5 -12 -2 -15 7 -7 37 7 37 17 0 13 -27 11 -35 -2z"/>
<path d="M4340 5390 c0 -5 5 -10 11 -10 5 0 7 5 4 10 -3 6 -8 10 -11 10 -2 0
-4 -4 -4 -10z"/>
<path d="M910 5377 c0 -9 -4 -17 -10 -19 -5 -1 -7 -13 -4 -25 5 -19 10 -20 31
-12 14 5 29 7 34 3 21 -12 7 13 -21 39 -21 20 -30 24 -30 14z"/>
<path d="M4385 5380 c3 -5 8 -10 11 -10 2 0 4 5 4 10 0 6 -5 10 -11 10 -5 0
-7 -4 -4 -10z"/>
<path d="M4448 5373 c6 -2 18 -2 25 0 6 3 1 5 -13 5 -14 0 -19 -2 -12 -5z"/>
<path d="M4398 5353 c7 -3 16 -2 19 1 4 3 -2 6 -13 5 -11 0 -14 -3 -6 -6z"/>
<path d="M1174 5311 c7 -10 31 -9 42 2 4 4 -5 7 -20 7 -15 0 -25 -4 -22 -9z"/>
<path d="M1232 5299 c-11 -18 -11 -24 4 -40 10 -12 28 -18 43 -17 43 5 72 58
32 58 -11 0 -23 5 -26 10 -11 17 -40 11 -53 -11z"/>
<path d="M1540 5314 c-11 -3 -16 -19 -18 -54 -1 -27 -7 -61 -14 -77 l-11 -28
-10 38 c-11 38 -37 52 -37 19 0 -10 -4 -22 -9 -27 -5 -6 -12 -20 -15 -32 -5
-17 -2 -23 16 -29 13 -3 26 -12 30 -17 5 -8 14 -7 31 2 15 8 30 10 39 5 21
-14 56 -12 51 3 -3 8 3 13 16 13 17 0 21 6 21 30 0 28 3 30 36 30 29 0 34 -3
25 -13 -6 -8 -7 -18 -3 -23 4 -5 -4 0 -17 11 l-24 20 7 -22 c4 -13 4 -23 -1
-23 -4 0 -13 -11 -19 -25 -10 -21 -9 -26 13 -40 14 -9 27 -14 30 -11 3 3 11
-1 17 -9 6 -7 24 -17 40 -21 27 -6 28 -6 22 23 -6 25 -4 31 13 36 31 8 26 20
-19 47 -41 26 -47 35 -30 45 6 3 10 10 10 14 0 10 -74 32 -92 29 -7 -2 -12 3
-10 10 1 6 -7 21 -18 32 -11 11 -20 27 -20 35 0 14 -18 17 -50 9z m57 -110
c-3 -3 -12 -4 -19 -1 -8 3 -5 6 6 6 11 1 17 -2 13 -5z"/>
<path d="M2263 5246 c-6 -8 -9 -17 -5 -20 3 -4 0 -11 -8 -16 -12 -8 -12 -10 4
-10 10 0 29 -11 42 -25 20 -21 30 -24 78 -22 42 1 52 5 44 14 -6 8 -20 10 -34
7 -13 -3 -24 -2 -24 3 0 5 -20 17 -45 28 -36 14 -44 22 -39 37 6 21 3 22 -13
4z"/>
<path d="M3180 5253 c-58 -11 -147 -46 -170 -68 -14 -12 -39 -30 -56 -38 -26
-13 -53 -47 -42 -51 2 -1 13 -7 25 -13 29 -17 108 -16 154 1 41 14 58 9 99
-32 14 -14 19 -22 13 -18 -24 14 -13 -14 12 -30 33 -22 32 -40 -5 -47 -21 -5
-30 -12 -30 -26 0 -25 22 -33 94 -36 48 -1 61 -6 76 -25 16 -21 23 -23 82 -17
35 3 70 2 77 -3 15 -9 63 8 56 20 -2 3 5 13 16 20 27 20 24 33 -6 28 -17 -4
-25 -1 -25 9 0 11 8 13 28 9 15 -3 55 -8 89 -11 59 -4 64 -3 80 21 15 24 15
27 0 35 -11 7 -14 18 -10 43 5 33 4 34 -33 39 -22 2 -68 12 -104 22 -71 18
-141 15 -168 -7 -23 -19 -136 -13 -128 8 3 7 -3 18 -12 23 -16 10 -16 10 1 11
9 0 17 5 17 11 0 7 -10 9 -25 5 -16 -4 -25 -2 -25 5 0 6 -9 9 -20 6 -10 -3
-19 -2 -18 2 1 3 -4 17 -11 30 -7 13 -9 21 -3 17 12 -7 72 13 72 25 0 5 -3 8
-7 8 -20 -3 -33 2 -30 13 2 14 -24 18 -63 11z m-150 -107 c0 -11 -19 -15 -25
-6 -3 5 1 10 9 10 9 0 16 -2 16 -4z"/>
<path d="M2345 5240 c-3 -5 1 -10 10 -10 9 0 13 5 10 10 -3 6 -8 10 -10 10 -2
0 -7 -4 -10 -10z"/>
<path d="M1018 5223 c7 -3 16 -2 19 1 4 3 -2 6 -13 5 -11 0 -14 -3 -6 -6z"/>
<path d="M2680 5191 c0 -10 30 -24 37 -17 3 3 2 9 -2 15 -8 13 -35 15 -35 2z"/>
<path d="M2798 5168 c-34 -12 -36 -24 -5 -32 35 -9 47 -7 41 8 -3 9 2 16 13
18 16 3 16 4 -2 9 -11 3 -32 2 -47 -3z"/>
<path d="M2619 5130 c-9 -6 0 -11 31 -16 25 -4 46 -7 48 -6 9 6 5 16 -8 18 -8
2 -24 5 -36 8 -11 2 -27 0 -35 -4z"/>
<path d="M2888 5133 c7 -3 16 -2 19 1 4 3 -2 6 -13 5 -11 0 -14 -3 -6 -6z"/>
<path d="M3612 4893 c-26 -5 -24 -26 3 -31 26 -6 69 19 53 30 -14 8 -18 8 -56
1z"/>
<path d="M718 4873 c7 -3 16 -2 19 1 4 3 -2 6 -13 5 -11 0 -14 -3 -6 -6z"/>
<path d="M680 4824 c0 -8 10 -15 23 -15 19 -1 18 -2 -5 -8 -21 -4 -25 -10 -18
-20 6 -10 28 -15 69 -15 34 -1 61 -4 61 -7 0 -3 14 -4 30 -1 36 5 39 19 8 32
-21 8 -22 9 -3 11 14 1 10 4 -10 8 -16 4 -33 3 -36 -2 -3 -5 -9 0 -12 12 -4
17 -13 20 -56 19 -37 0 -51 -4 -51 -14z"/>
<path d="M4500 4770 c0 -5 5 -10 11 -10 5 0 7 5 4 10 -3 6 -8 10 -11 10 -2 0
-4 -4 -4 -10z"/>
<path d="M1033 4622 c-48 -5 -40 -18 17 -32 27 -7 47 -16 44 -21 -3 -5 0 -9 5
-9 17 0 13 17 -11 42 -17 18 -31 23 -55 20z"/>
<path d="M1130 4611 c0 -6 14 -14 30 -17 17 -4 30 -10 30 -15 0 -5 8 -9 17 -9
16 0 15 2 -2 19 -24 24 -75 38 -75 22z"/>
<path d="M1125 4540 c3 -5 10 -10 16 -10 5 0 9 5 9 10 0 6 -7 10 -16 10 -8 0
-12 -4 -9 -10z"/>
<path d="M1160 4512 c0 -5 14 -9 32 -10 23 -1 28 2 18 8 -19 12 -50 13 -50 2z"/>
<path d="M1300 4491 c0 -10 30 -24 37 -17 3 2 -5 9 -16 16 -12 6 -21 7 -21 1z"/>
<path d="M3170 4094 c0 -11 -6 -14 -21 -9 -15 5 -19 4 -15 -4 4 -6 1 -11 -8
-11 -10 0 -13 -6 -10 -15 4 -8 10 -12 16 -9 17 11 63 12 69 1 10 -16 40 0 33
18 -4 10 0 15 11 15 9 0 13 5 10 10 -4 6 -15 8 -25 5 -10 -3 -21 -1 -25 5 -10
16 -35 12 -35 -6z"/>
<path d="M2690 4033 c1 -24 18 -35 39 -24 12 7 26 9 31 6 6 -3 10 -2 10 3 0 5
-14 12 -31 16 -41 8 -49 8 -49 -1z"/>
<path d="M1950 4010 c0 -5 5 -10 11 -10 5 0 7 5 4 10 -3 6 -8 10 -11 10 -2 0
-4 -4 -4 -10z"/>
<path d="M0 3206 l0 -486 53 0 c29 0 78 -5 108 -10 35 -7 73 -7 104 -1 36 7
52 6 57 -2 6 -9 8 -9 8 0 0 8 18 11 55 9 56 -3 90 -16 42 -16 -15 0 -27 -4
-27 -10 0 -12 13 -12 125 0 71 9 92 8 100 -2 7 -9 44 -14 115 -16 72 -2 112
-8 128 -18 21 -14 26 -14 47 0 13 9 31 13 40 10 21 -8 105 24 129 49 19 19 19
19 -4 12 -17 -6 -21 -4 -14 6 20 32 15 49 -14 49 -16 0 -69 13 -118 30 l-89
29 80 -5 c44 -3 96 -10 116 -15 43 -11 119 -9 119 3 0 4 -5 8 -11 8 -6 0 -24
11 -41 25 -16 14 -36 25 -44 25 -8 0 -14 4 -14 8 0 5 -15 9 -32 9 -74 0 -88 3
-88 19 0 11 6 15 20 11 11 -3 18 -1 14 4 -3 5 -18 9 -34 9 -21 0 -28 -4 -24
-14 4 -9 -3 -13 -20 -13 -15 0 -23 4 -19 10 4 6 0 8 -11 4 -12 -5 -19 0 -25
16 -11 28 -6 33 16 16 11 -9 14 -10 9 -1 -5 8 0 12 15 12 51 0 -1 19 -91 34
-171 27 -201 29 -198 14 2 -7 10 -16 18 -20 11 -5 9 -7 -7 -7 -13 -1 -23 3
-23 9 0 5 -3 9 -8 9 -29 -5 -34 2 -16 22 17 19 18 21 1 30 -9 6 -17 16 -17 24
0 7 -6 15 -12 17 -7 3 9 10 35 16 85 22 53 64 -73 97 -3 1 -18 8 -35 15 -16 8
-50 15 -75 16 -43 3 -120 28 -120 40 0 4 153 -2 199 -8 3 0 9 1 14 2 4 1 10 3
15 4 13 3 62 38 62 45 0 4 -11 13 -24 21 -13 7 -27 21 -29 31 -4 15 -15 19
-51 19 -70 0 -173 30 -215 62 -18 14 -20 18 -7 18 9 0 16 5 16 10 0 6 -9 10
-21 10 -15 0 -19 5 -15 15 3 9 0 15 -9 15 -8 0 -29 9 -47 20 l-33 20 42 0 c23
0 44 4 48 9 9 15 -62 44 -94 39 -17 -2 -28 -1 -25 3 2 4 -6 10 -18 13 -13 3 5
3 40 1 50 -4 62 -2 62 10 0 15 -11 19 -85 30 -22 3 -48 8 -57 11 -16 5 -17
-27 -18 -480z m581 -306 c39 -10 98 -22 132 -25 34 -3 78 -9 97 -12 35 -7 35
-7 -15 -14 -27 -4 -75 -3 -105 2 -30 5 -102 12 -159 16 -105 8 -132 20 -89 41
33 16 60 14 139 -8z"/>
<path d="M258 3643 c-56 -5 -61 -16 -15 -33 66 -24 73 -29 55 -29 -9 -1 -29 4
-44 9 -26 10 -44 7 -31 -6 3 -3 33 -12 67 -19 52 -11 63 -11 75 2 11 10 27 12
58 8 29 -5 54 -2 78 8 18 9 27 16 18 16 -9 1 -22 8 -29 16 -9 11 -23 13 -51 9
-29 -5 -39 -3 -39 7 0 15 -49 19 -142 12z"/>
<path d="M3470 3640 c36 -11 52 -11 45 0 -3 6 -21 10 -38 9 -31 -1 -31 -1 -7
-9z"/>
<path d="M910 3620 c14 -11 40 -20 59 -20 34 0 37 12 3 15 -9 1 -30 7 -45 14
-41 16 -46 13 -17 -9z"/>
<path d="M580 3620 c0 -5 5 -10 11 -10 5 0 7 5 4 10 -3 6 -8 10 -11 10 -2 0
-4 -4 -4 -10z"/>
<path d="M3465 3601 c-3 -6 -20 -11 -36 -11 -18 0 -28 -4 -24 -10 3 -5 22 -10
41 -10 21 0 33 -4 29 -10 -3 -5 1 -10 10 -10 9 0 13 5 10 10 -3 6 1 10 9 10 9
0 16 7 16 15 0 8 -4 15 -9 15 -5 0 -16 3 -24 6 -8 3 -18 1 -22 -5z"/>
<path d="M2035 3560 c3 -5 17 -10 31 -10 14 0 22 4 19 10 -3 6 -17 10 -31 10
-14 0 -22 -4 -19 -10z"/>
<path d="M3593 3554 c-7 -7 -9 -15 -4 -18 5 -3 14 1 20 8 15 18 0 28 -16 10z"/>
<path d="M3546 3535 c4 -8 10 -15 15 -15 5 0 9 7 9 15 0 8 -7 15 -15 15 -9 0
-12 -6 -9 -15z"/>
<path d="M1835 3441 c3 -6 -1 -11 -9 -11 -9 0 -16 -5 -16 -11 0 -8 -15 -9 -45
-4 -36 5 -55 2 -90 -15 -24 -12 -60 -22 -80 -23 -41 -2 -48 -17 -7 -18 24 0
25 -1 7 -9 -18 -7 -18 -9 -3 -15 9 -3 25 -2 37 4 25 14 61 14 61 1 0 -6 -13
-13 -30 -16 -16 -4 -35 -13 -42 -22 -11 -13 -10 -15 9 -10 12 3 24 1 27 -6 3
-7 8 -6 15 4 9 13 11 13 11 -2 0 -14 8 -18 35 -18 19 0 35 5 35 10 0 6 -4 10
-10 10 -5 0 -10 4 -10 9 0 13 92 23 104 11 16 -16 53 -12 60 6 3 9 13 14 20
11 8 -3 20 1 26 9 17 19 44 18 36 -1 -7 -19 4 -19 40 0 l29 15 -25 1 c-14 0
-19 3 -12 6 23 9 1 23 -26 17 -15 -4 -23 -3 -19 2 4 4 -3 14 -15 21 -21 12
-19 13 27 12 76 -1 85 0 85 12 0 8 -13 10 -38 7 -24 -4 -45 0 -57 8 -23 17
-82 18 -88 2 -3 -10 -9 -10 -27 0 -12 8 -19 9 -15 3z m10 -41 c3 -5 2 -10 -4
-10 -5 0 -13 5 -16 10 -3 6 -2 10 4 10 5 0 13 -4 16 -10z m55 0 c0 -5 -7 -10
-16 -10 -8 0 -12 5 -9 10 3 6 10 10 16 10 5 0 9 -4 9 -10z m-5 -50 c16 0 15
-3 -9 -15 -35 -18 -37 -18 -30 -1 3 8 0 16 -8 19 -7 2 -4 3 7 1 11 -2 29 -4
40 -4z"/>
<path d="M3725 3441 c-2 -5 4 -11 15 -14 11 -3 20 -2 20 3 0 12 -28 21 -35 11z"/>
<path d="M3927 3419 c-18 -10 -18 -11 0 -24 21 -15 53 -3 53 20 0 17 -27 19
-53 4z"/>
<path d="M3820 3400 c0 -5 7 -10 15 -10 8 0 15 5 15 10 0 6 -7 10 -15 10 -8 0
-15 -4 -15 -10z"/>
<path d="M4010 3389 c0 -5 5 -7 10 -4 6 3 10 8 10 11 0 2 -4 4 -10 4 -5 0 -10
-5 -10 -11z"/>
<path d="M3855 3370 c-10 -11 -14 -20 -9 -20 5 0 17 9 27 20 9 11 13 20 8 20
-4 0 -16 -9 -26 -20z"/>
<path d="M3750 3350 c0 -5 12 -10 28 -9 24 0 25 1 7 9 -27 12 -35 12 -35 0z"/>
<path d="M2015 3310 c-4 -6 17 -10 55 -10 38 0 59 4 55 10 -3 6 -28 10 -55 10
-27 0 -52 -4 -55 -10z"/>
<path d="M2104 3285 c-44 -24 -124 -42 -124 -28 0 4 -7 16 -15 27 -13 17 -15
17 -30 3 -11 -11 -22 -14 -37 -8 -20 7 -68 3 -68 -6 0 -2 7 -17 15 -33 13 -25
22 -29 82 -37 100 -12 223 -10 231 4 4 6 30 14 57 18 105 14 143 44 58 45 -18
0 -33 5 -33 10 0 6 8 10 18 10 14 0 15 2 2 10 -8 5 -26 10 -39 10 -24 0 -24 0
-5 -15 13 -10 15 -14 5 -15 -8 0 -19 -7 -26 -16 -14 -20 -52 -11 -52 11 0 8 4
15 9 15 4 0 8 -5 8 -11 0 -8 5 -8 15 1 43 35 -10 39 -71 5z"/>
<path d="M1374 3219 c-11 -18 9 -28 63 -31 30 -2 51 -7 50 -13 -4 -9 -18 -10
-77 -4 -8 1 -19 5 -25 8 -5 4 -30 4 -55 1 l-44 -5 28 -19 c22 -14 39 -17 72
-12 24 3 46 2 49 -3 6 -11 35 -4 83 19 36 18 33 28 -11 36 -81 14 -89 17 -76
25 10 6 4 9 -18 9 -17 0 -35 -5 -39 -11z"/>
<path d="M1550 3210 c0 -5 4 -10 10 -10 5 0 7 -7 4 -15 -5 -11 -2 -13 9 -9 13
5 14 9 4 25 -13 20 -27 25 -27 9z"/>
<path d="M1173 2863 c9 -2 23 -2 30 0 6 3 -1 5 -18 5 -16 0 -22 -2 -12 -5z"/>
<path d="M1182 2804 c9 -9 21 -15 27 -13 6 2 -2 10 -17 17 -25 11 -25 11 -10
-4z"/>
<path d="M1265 2768 c-14 -5 -9 -6 14 -2 20 4 31 2 28 -3 -4 -6 27 -10 78 -10
81 0 99 4 58 12 -10 2 -18 4 -18 5 0 6 -145 5 -160 -2z"/>
<path d="M1105 2750 c-3 -6 1 -13 10 -16 19 -8 30 0 20 15 -8 14 -22 14 -30 1z"/>
<path d="M1187 2753 c-51 -8 -23 -28 42 -31 42 -2 61 0 56 7 -3 6 -15 11 -25
11 -10 0 -22 5 -25 10 -3 6 -9 9 -13 9 -4 -1 -20 -4 -35 -6z"/>
<path d="M1318 2718 c5 -5 16 -8 23 -6 8 3 3 7 -10 11 -17 4 -21 3 -13 -5z"/>
<path d="M3900 2720 c0 -5 5 -10 10 -10 6 0 10 5 10 10 0 6 -4 10 -10 10 -5 0
-10 -4 -10 -10z"/>
<path d="M1515 2704 c-40 -14 -40 -14 -5 -9 19 3 39 10 44 15 12 12 12 12 -39
-6z"/>
<path d="M1095 2700 c-3 -5 3 -10 14 -10 11 0 23 5 26 10 3 6 -3 10 -14 10
-11 0 -23 -4 -26 -10z"/>
<path d="M1425 2690 c3 -5 8 -10 11 -10 2 0 4 5 4 10 0 6 -5 10 -11 10 -5 0
-7 -4 -4 -10z"/>
<path d="M3892 2689 c18 -12 61 -11 53 0 -3 5 -19 9 -36 9 -20 -1 -26 -4 -17
-9z"/>
<path d="M359 2666 c10 -12 0 -16 -56 -24 -37 -6 -101 -14 -142 -17 -88 -8
-109 -14 -89 -27 9 -6 6 -8 -12 -7 -40 3 -60 0 -60 -10 0 -8 46 -13 138 -13
52 -1 147 9 211 21 29 6 63 11 75 11 20 -1 19 -2 -4 -15 l-25 -14 32 -1 c17 0
35 5 38 10 4 6 12 7 18 3 6 -4 25 -6 41 -5 16 2 33 -3 38 -10 6 -10 8 -9 8 4
0 9 -14 30 -30 47 -27 27 -37 30 -77 27 -35 -3 -51 1 -67 15 -24 23 -55 27
-37 5z"/>
<path d="M1198 2663 c6 -2 18 -2 25 0 6 3 1 5 -13 5 -14 0 -19 -2 -12 -5z"/>
<path d="M3870 2620 c0 -5 5 -10 10 -10 6 0 10 5 10 10 0 6 -4 10 -10 10 -5 0
-10 -4 -10 -10z"/>
<path d="M718 2593 c6 -2 18 -2 25 0 6 3 1 5 -13 5 -14 0 -19 -2 -12 -5z"/>
<path d="M295 2550 l-30 -6 29 -6 c17 -3 39 -3 50 1 19 8 19 8 0 12 -10 3 -32
2 -49 -1z"/>
<path d="M398 2553 c7 -3 16 -2 19 1 4 3 -2 6 -13 5 -11 0 -14 -3 -6 -6z"/>
<path d="M4015 2470 c-3 -5 1 -10 10 -10 9 0 13 5 10 10 -3 6 -8 10 -10 10 -2
0 -7 -4 -10 -10z"/>
<path d="M4160 2420 c0 -5 5 -10 11 -10 5 0 7 5 4 10 -3 6 -8 10 -11 10 -2 0
-4 -4 -4 -10z"/>
<path d="M4510 2410 c0 -5 5 -10 11 -10 5 0 7 5 4 10 -3 6 -8 10 -11 10 -2 0
-4 -4 -4 -10z"/>
<path d="M1388 2393 c7 -3 16 -2 19 1 4 3 -2 6 -13 5 -11 0 -14 -3 -6 -6z"/>
</g>
</svg>
