<!DOCTYPE svg PUBLIC "-//W3C//DTD SVG 1.1//EN" "http://www.w3.org/Graphics/SVG/1.1/DTD/svg11.dtd">
<!-- Uploaded to: SVG Repo, www.svgrepo.com, Transformed by: SVG Repo Mixer Tools -->
<svg width="800px" height="800px" viewBox="0 0 16 16" xmlns="http://www.w3.org/2000/svg" fill="#000000">
<g id="SVGRepo_bgCarrier" stroke-width="0"/>
<g id="SVGRepo_tracerCarrier" stroke-linecap="round" stroke-linejoin="round"/>
<g id="SVGRepo_iconCarrier"> <path d="m 5 1.761719 c -0.214844 0 -0.429688 0.082031 -0.570312 0.25 c -0.25 0.289062 -2.429688 2.898437 -2.429688 4.988281 c 0 0.773438 0.265625 1.5 0.75 2.042969 c 0.390625 0.4375 1.09375 0.957031 2.25 0.957031 c 1.96875 0 3 -1.507812 3 -3 c 0 -2.09375 -2.183594 -4.699219 -2.429688 -4.988281 c -0.144531 -0.167969 -0.355468 -0.25 -0.570312 -0.25 z m 6 4 c -0.214844 0 -0.429688 0.082031 -0.570312 0.25 c -0.25 0.289062 -2.429688 2.898437 -2.429688 4.988281 c 0 0.773438 0.265625 1.5 0.75 2.042969 c 0.390625 0.4375 1.09375 0.957031 2.25 0.957031 c 1.96875 0 3 -1.507812 3 -3 c 0 -2.09375 -2.183594 -4.699219 -2.429688 -4.988281 c -0.144531 -0.167969 -0.355468 -0.25 -0.570312 -0.25 z m 0 0" fill="#fff"/> </g>
</svg>