<!DOCTYPE svg PUBLIC "-//W3C//DTD SVG 1.1//EN" "http://www.w3.org/Graphics/SVG/1.1/DTD/svg11.dtd">
<!-- Uploaded to: SVG Repo, www.svgrepo.com, Transformed by: SVG Repo Mixer Tools -->
<svg fill="#fff" width="800px" height="800px" viewBox="0 0 32 32" version="1.1" xmlns="http://www.w3.org/2000/svg" stroke="#fff">
<g id="SVGRepo_bgCarrier" stroke-width="0"/>
<g id="SVGRepo_tracerCarrier" stroke-linecap="round" stroke-linejoin="round"/>
<g id="SVGRepo_iconCarrier"> <title>wind</title> <path d="M13 11.261c0.038 0 0.070-0.018 0.107-0.021 2.849-0.061 5.136-2.386 5.136-5.244 0-2.897-2.348-5.245-5.245-5.245-2.404 0-4.43 1.617-5.050 3.823l-0.009 0.037-0.012 0.025c-0.115 0.411-0.181 0.883-0.182 1.371v0c0 0.69 0.56 1.25 1.25 1.25s1.25-0.56 1.25-1.25v0c0-0.254 0.035-0.499 0.099-0.732l-0.005 0.019 0.006-0.012c0.327-1.18 1.391-2.032 2.655-2.032 1.519 0 2.75 1.231 2.75 2.75s-1.231 2.75-2.75 2.75h-0c-0.019 0-0.034 0.010-0.053 0.011l-10.932-0.011c-0 0-0 0-0 0-0.69 0-1.25 0.56-1.25 1.25s0.559 1.25 1.249 1.25l10.985 0.011zM24.469 4.869c-3.106 0.004-5.723 2.093-6.527 4.942l-0.012 0.048-0.013 0.026c-0.149 0.53-0.235 1.139-0.235 1.768 0 0.002 0 0.003 0 0.005v-0c0 0.69 0.56 1.25 1.25 1.25s1.25-0.56 1.25-1.25v0c0-0.002 0-0.005 0-0.007 0-0.393 0.054-0.774 0.155-1.135l-0.007 0.030 0.007-0.013c0.509-1.837 2.166-3.163 4.133-3.163 2.364 0 4.281 1.917 4.281 4.281s-1.917 4.281-4.281 4.281v0c-0.026 0-0.047 0.013-0.072 0.015l-20.34-0.020c-0.689 0.003-1.246 0.561-1.246 1.25s0.557 1.247 1.245 1.25l20.413 0.020c0.053-0.008 0.099-0.017 0.144-0.029l-0.008 0.002c3.685-0.073 6.644-3.078 6.644-6.774 0-3.742-3.033-6.775-6.775-6.775-0.002 0-0.004 0-0.006 0h0zM22.718 19.309c-0.031-0.008-0.070-0.017-0.11-0.023l-0.006-0.001-18.546 0.018c-0.69 0-1.25 0.56-1.25 1.25s0.56 1.25 1.25 1.25c0 0 0 0 0.001 0l18.487-0.018c0.020 0.001 0.037 0.012 0.058 0.012 1.902 0 3.443 1.542 3.443 3.443s-1.542 3.443-3.443 3.443c-1.582 0-2.915-1.067-3.318-2.521l-0.006-0.024-0.007-0.015c-0.074-0.267-0.117-0.573-0.118-0.89v-0c0-0.002 0-0.003 0-0.005 0-0.69-0.559-1.25-1.25-1.25s-1.25 0.559-1.25 1.25c0 0.002 0 0.003 0 0.005v-0c0 0.002 0 0.005 0 0.007 0 0.55 0.075 1.082 0.214 1.587l-0.010-0.042c0.005 0.017 0.016 0.029 0.021 0.045 0.717 2.533 3.009 4.357 5.726 4.357 3.281 0 5.941-2.66 5.941-5.941 0-3.241-2.595-5.876-5.821-5.94l-0.006-0z"/> </g>
</svg>